<?xml version="1.0" encoding="UTF-8" standalone="no"?>
<!-- Created with Inkscape (http://www.inkscape.org/) -->

<svg
   width="120.62513mm"
   height="127.35479mm"
   viewBox="0 0 120.62513 127.35479"
   version="1.1"
   id="svg1"
   xml:space="preserve"
   xmlns="http://www.w3.org/2000/svg"
   xmlns:svg="http://www.w3.org/2000/svg"><defs
     id="defs1" /><g
     id="layer1"
     transform="translate(-44.474915,-85.176453)"><path
       style="fill:#000000"
       d="m 55.520871,211.7176 c -0.639963,-0.074 -0.72867,-0.22846 -0.98796,-1.71979 -0.785274,-4.51655 -1.152662,-9.21025 -1.221626,-15.6073 l -0.07358,-6.82512 -2.519344,-2.59631 -2.519345,-2.5963 -0.143456,0.82246 c -0.801875,4.5973 -1.151284,22.41615 -0.523276,26.68549 l 10.336391,1.78593 H 46.547679 c -0.837617,0 -1.295009,-0.12429 -1.392527,-0.37842 -0.07987,-0.20813 -0.287917,-2.38102 -0.462331,-4.82865 -0.730505,-10.25147 0.411178,-25.00484 2.89219,-37.37423 l 0.766173,-3.81985 -0.598821,-1.12623 c -0.809624,-1.5227 -1.031473,-4.41915 -0.662975,-8.6558 0.33625,-3.86589 0.74265,-5.12708 2.010971,-6.24068 0.833864,-0.73214 2.331583,-1.33586 3.32243,-1.33924 0.444235,-0.002 0.748483,-0.72756 0.75485,-1.80133 0.0093,-1.561 0.878964,-4.36009 1.6153,-5.19873 l 0.766346,-0.87282 -0.753781,-1.68669 c -1.079602,-2.41577 -1.379164,-3.89945 -1.382664,-6.84811 -0.0058,-4.85805 1.316468,-8.04672 4.951033,-11.93982 3.374357,-3.61438 3.599183,-4.21665 3.838697,-10.28314 0.247944,-6.28004 0.698925,-8.60118 2.287597,-11.773957 0.948501,-1.894276 1.80104,-2.927881 3.479072,-4.217973 3.421356,-2.630382 6.847006,-3.746177 10.696407,-3.484009 l 2.343354,0.159597 1.323618,-1.190047 c 5.294931,-4.760598 14.862117,-4.790667 21.047512,-0.06615 3.94393,3.012447 6.85684,9.380938 7.59447,16.603789 0.4489,4.39562 1.81588,6.80714 5.12583,9.04263 3.47315,2.3457 5.87594,5.05736 6.93925,7.83123 0.42654,1.11273 0.60421,2.23673 0.66953,4.23557 0.10035,3.07072 0.52685,4.34985 2.08403,6.25018 2.05395,2.50657 2.93608,6.23341 2.13948,9.03888 -0.86498,3.04632 -2.71558,5.05193 -5.82913,6.31737 -0.82051,0.33347 -1.49338,0.68806 -1.49528,0.78797 -0.002,0.0999 1.20454,1.63358 2.68097,3.40818 3.9851,4.78987 7.93684,10.81232 10.71637,16.33172 l 0.90849,1.80402 1.39574,0.14112 c 0.76766,0.0776 3.18168,0.19958 5.36449,0.27101 l 3.96875,0.12989 0.59679,-0.91112 c 0.32823,-0.50112 1.01341,-1.17968 1.52264,-1.50791 l 0.92585,-0.59678 -0.0674,-15.90803 -0.0674,-15.90803 -1.24708,-1.81906 c -0.68589,-1.00047 -1.57886,-2.53342 -1.98437,-3.40655 -0.67224,-1.44742 -0.73831,-1.86304 -0.74879,-4.7101 l -0.0115,-3.12259 -2.69954,-2.67888 c -3.32397,-3.29854 -3.89798,-4.3474 -3.87644,-7.08322 0.0181,-2.29945 0.60037,-3.70735 2.24317,-5.42396 l 1.01283,-1.05833 -0.92624,-1.5638 c -0.59731,-1.00846 -0.87403,-1.76013 -0.77924,-2.11666 0.0808,-0.30408 2.74075,-4.303341 5.9109,-8.887247 4.81555,-6.963097 5.87702,-8.347607 6.45147,-8.4148 0.62449,-0.07305 1.26129,0.708261 6.93943,8.51406 3.43852,4.726968 6.25185,8.763167 6.25185,8.969337 0,0.20616 -0.45672,1.00966 -1.01493,1.78554 l -1.01492,1.4107 0.81649,1.58305 c 0.73689,1.42874 0.81631,1.81748 0.8147,3.9879 -0.002,2.38703 -0.0179,2.44574 -2.18281,7.9301 -1.48307,3.75711 -2.1811,5.87387 -2.18124,6.61459 -2.5e-4,1.32357 -1.17606,3.91107 -2.34124,5.15219 l -0.83355,0.88787 v 17.78669 17.78668 l 0.65351,0.34975 c 0.81011,0.43356 1.91938,2.00239 2.26301,3.20054 0.14216,0.49569 0.25732,2.98564 0.25589,5.53322 -0.002,4.32353 -0.0446,4.72223 -0.63385,5.98771 -0.3472,0.74567 -1.06041,1.69817 -1.58491,2.11667 l -0.95364,0.7609 v 12.73153 l -1e-5,12.73153 -5.3343,0.33768 c -6.39625,0.40492 4.76426,1.20741 2.67182,-2.26466 0.78213,1.21779 0.0166,-0.42758 0.0166,-10.30691 v -12.56771 h -1.5875 -1.5875 v 12.60233 l -0.52105,12.77601 0.0499,0.35706 c 0,0 -2.18312,-0.16531 -2.36502,-0.16691 -0.25991,-0.002 0.19032,-3.3957 0.19032,-13.29815 v -12.6005 l -1.19949,-1.05584 c -0.65973,-0.58071 -1.37716,-1.39939 -1.5943,-1.81929 l -0.3948,-0.76346 h -2.90362 c -1.63459,0 -2.90362,0.10864 -2.90362,0.24857 0,0.1367 0.34604,1.66564 0.76898,3.39764 1.63201,6.68333 2.40602,13.22236 2.40602,20.32662 v 4.86675 h -11.53626 l 8.7848,0.17369 0.0324,-6.85441 c 0.0256,-5.41119 -0.26946,-7.46747 -0.81534,-10.81703 -0.61078,-3.74782 -1.60233,-8.23054 -2.31854,-10.48193 l -0.27355,-0.8599 h -4.60969 c -2.53533,0 -4.60969,0.0378 -4.60969,0.0841 0,0.0463 0.58388,1.86195 1.29751,4.0349 1.28309,3.9069 2.08544,7.38872 2.70905,11.75601 0.33673,2.3582 0.47884,12.53613 0.17921,12.83576 -0.13464,0.13464 -64.689068,-1.35816 -68.720698,-1.4512 -0.64485,-0.0149 53.392168,1.41322 52.931498,-0.0783 -2.66182,-8.61796 -7.617,-16.82319 -13.22256,-21.89509 l -1.76464,-1.59665 -0.77026,0.9995 c -1.296081,1.68178 -6.295423,6.51383 -7.68075,7.42371 -2.520388,1.65541 -4.583001,1.75002 -7.666962,0.35168 -2.232229,-1.01214 -5.844832,-3.19123 -8.019917,-4.83755 -0.927854,-0.70229 -1.777433,-1.27689 -1.887954,-1.27689 -0.36611,0 -3.551027,5.10505 -5.36469,8.59896 -2.023112,3.89741 -3.390498,7.26851 -4.500142,11.09447 -0.419177,1.44528 53.349695,2.55381 53.290025,2.61348 -0.13032,0.13032 -61.815926,0.34945 -62.817021,0.23361 z m 13.523996,-18.52173 1.125586,-1.89465 -3.7638,-3.90634 c -4.083576,-4.23822 -8.199292,-9.18018 -8.196684,-9.84217 8.98e-4,-0.22779 0.52015,-2.25964 1.153895,-4.51521 0.633744,-2.25557 1.102233,-4.19034 1.041086,-4.29948 -0.06115,-0.10914 -0.635837,-0.19844 -1.277089,-0.19844 -1.492048,0 -6.833248,-0.74157 -7.691533,-1.06789 -0.816161,-0.3103 -0.781307,-0.40834 -1.299831,3.65637 -0.584452,4.58151 -0.600234,7.61236 -0.04628,8.88709 0.817352,1.88085 8.165484,8.85084 12.210541,11.58217 0.938058,0.6334 1.76448,1.29521 1.836492,1.47069 0.07201,0.17548 -0.121061,1.60725 -0.429052,3.18171 -0.598895,3.06157 -0.546186,3.8034 0.351309,4.94438 l 0.571004,0.72591 1.644383,-3.41475 c 0.904411,-1.87811 2.150897,-4.26734 2.76997,-5.30939 z m 21.788114,-0.30905 c 1.572157,-0.99703 5.394066,-4.65525 7.089262,-6.78563 l 1.296509,-1.62935 v -5.00012 c 0,-5.86412 0.28395,-7.3306 1.900208,-9.81376 2.06389,-3.17088 2.95049,-6.98487 2.48667,-10.6972 l -0.18147,-1.45241 -1.91491,0.12289 c -1.567027,0.10057 -2.158988,0.0179 -3.25847,-0.45509 -2.194465,-0.94404 -3.803263,-3.04458 -4.185603,-5.46499 l -0.171506,-1.08572 -2.959855,-0.17794 c -9.677715,-0.58184 -19.379522,-3.35235 -26.890261,-7.67896 -3.467163,-1.99729 -6.525778,-1.89282 -7.546284,0.25774 -0.441613,0.93063 -1.055071,5.26085 -0.803065,5.6686 0.233023,0.37704 5.437204,2.32205 8.781451,3.28197 5.474009,1.57125 11.222619,2.53601 15.156988,2.54372 1.095224,0.002 2.288972,0.15373 2.652774,0.33686 0.866508,0.43617 0.998937,1.5082 0.268022,2.16967 -0.521059,0.47155 -0.760845,0.4818 -4.444294,0.18991 -7.023817,-0.55659 -13.390289,-1.96619 -19.442703,-4.30481 -6.798862,-2.62704 -6.369074,-2.50074 -7.257526,-2.13273 -0.441515,0.18288 -0.93697,0.59255 -1.101012,0.91038 -0.685675,1.32847 -1.081437,8.66094 -0.567346,10.51147 0.320511,1.15372 1.673541,2.47775 2.911528,2.84912 2.76678,0.82999 9.796196,1.24593 14.552082,0.86108 8.226663,-0.66572 16.026773,-2.85807 23.485317,-6.60094 1.484349,-0.74488 2.915293,-1.35433 3.179875,-1.35433 0.695885,0 1.116057,0.52434 1.116057,1.39275 0,0.71559 -0.226442,0.86752 -4.070043,2.73088 -4.877634,2.36465 -10.789041,4.36631 -15.725171,5.32471 -1.991226,0.38662 -3.665504,0.73611 -3.720619,0.77664 -0.05512,0.0405 0.68377,0.92047 1.641967,1.95541 2.662529,2.87578 2.823867,3.48025 2.823867,10.57983 v 5.80704 l 1.521354,1.20771 c 1.965724,1.56047 5.774644,3.93173 8.123928,5.05759 2.371975,1.13674 3.578861,1.15926 5.252279,0.098 z m 65.294349,-9.34007 c 1.44547,-0.9741 1.55613,-1.43418 1.56043,-6.48749 0.004,-4.99926 -0.14311,-5.64205 -1.50393,-6.55952 -0.60514,-0.40799 -1.23506,-0.50015 -3.43319,-0.50231 -2.30841,-0.002 -2.79859,0.0754 -3.43958,0.54534 -1.52154,1.11537 -1.70397,1.88863 -1.61855,6.86036 0.0655,3.80989 0.15007,4.60511 0.55316,5.19869 0.78804,1.16049 1.90121,1.53546 4.57822,1.54216 2.07471,0.005 2.53226,-0.0775 3.30344,-0.59723 z m -11.19413,-6.60665 -0.0738,-3.50572 -5.15937,-0.19249 c -14.26517,-0.53219 -15.10794,-0.60023 -16.53646,-1.33506 -1.86326,-0.95846 -7.48983,-6.88507 -13.18153,-13.88443 -1.44958,-1.78263 -2.70816,-3.23456 -2.79683,-3.22651 -0.0887,0.008 -0.42939,0.35464 -0.75715,0.77019 -0.56865,0.72098 -0.58251,0.85048 -0.30279,2.82963 0.37241,2.63508 0.12827,5.66499 -0.65527,8.13239 l -0.61344,1.93173 1.3483,1.18806 c 4.00294,3.52721 10.60935,8.48866 12.85767,9.65618 0.65484,0.34005 1.72641,0.72301 2.38125,0.85103 0.65484,0.12801 6.22447,0.2458 12.37695,0.26174 l 11.18633,0.029 z m -13.1707,-6.85448 c 0,-0.44588 -2.99812,-5.77042 -4.89302,-8.68979 -1.99364,-3.0715 -5.10641,-7.07029 -7.77495,-9.98802 -2.31559,-2.53181 -2.95297,-2.75121 -3.42412,-1.17866 -0.41978,1.4011 -1.93391,3.07288 -3.42164,3.7779 -0.69083,0.32738 -1.29382,0.62366 -1.33998,0.65839 -0.48218,0.3629 11.73361,14.03878 13.27878,14.86591 0.73329,0.39254 2.43651,0.59969 6.71503,0.8167 0.49968,0.0254 0.8599,-0.0846 0.8599,-0.26243 z m 22.75417,-20.04361 v -17.43923 l -3.63803,-3.48521 -3.63802,-3.48521 -0.0826,0.95641 c -0.13276,1.53735 0.62861,3.60735 2.18958,5.95293 0.80048,1.20284 1.57594,2.62092 1.72326,3.15129 0.16655,0.59963 0.2684,6.79263 0.26932,16.37628 l 0.001,15.41198 h 1.5875 1.5875 z m -50.94655,4.37536 c 0.7182,-0.3867 1.2499,-0.96299 1.70352,-1.84639 0.63456,-1.23579 0.6479,-1.36334 0.35373,-3.38164 -0.57558,-3.94909 -1.78618,-5.51125 -4.44159,-5.73146 -2.485805,-0.20614 -4.303236,1.38163 -4.715439,4.11958 -0.213955,1.42114 0.254685,4.44642 0.845233,5.45634 1.25506,2.14634 3.794546,2.7081 6.254546,1.38357 z m 7.74915,-3.00491 c 1.47628,-0.67578 1.9224,-1.75022 1.9224,-4.62997 0,-2.61721 -0.22024,-4.21952 -0.96628,-7.03003 -0.64986,-2.44816 -1.03664,-2.53088 -3.06737,-0.65595 -0.91115,0.84124 -2.12278,1.89814 -2.69251,2.34866 l -1.03588,0.81913 0.7255,0.95118 c 0.39902,0.52314 0.9426,1.52376 1.20796,2.22358 0.56311,1.48511 1.17766,5.23019 0.95392,5.81325 -0.0848,0.22093 -0.092,0.50217 -0.0161,0.62498 0.18243,0.29518 1.89343,0.0273 2.9684,-0.46483 z m -17.392185,-4.43642 c 0,-0.50932 0.02977,-1.01099 0.06615,-1.11482 0.03638,-0.10384 -1.481666,-0.39227 -3.373437,-0.64097 -8.493046,-1.11652 -16.014305,-3.67363 -21.660269,-7.36416 -2.485361,-1.62458 -3.244215,-1.67735 -3.922014,-0.27275 -1.000143,2.07259 -0.976073,2.13477 1.297295,3.35132 7.520708,4.02458 17.749004,6.75815 25.938634,6.93227 l 1.653645,0.0352 z m 26.700975,-1.11365 c 2.38092,-0.79974 3.97591,-2.33039 4.73941,-4.54822 0.72573,-2.10814 0.10138,-4.75158 -1.68292,-7.12522 -1.91309,-2.54497 -2.30448,-3.68797 -2.50694,-7.32124 -0.15236,-2.73403 -0.27787,-3.3728 -0.9037,-4.59919 -0.95725,-1.87587 -2.73576,-3.75054 -5.20102,-5.48222 -4.46224,-3.13444 -6.01839,-5.72442 -6.5966,-10.97914 -1.28728,-11.698539 -6.70643,-17.96438 -15.607538,-18.04608 -4.111777,-0.03774 -7.079533,1.114791 -9.55829,3.711975 -1.17221,1.228215 -1.476423,1.415823 -2.060068,1.270446 -0.376622,-0.09381 -1.708499,-0.236767 -2.959727,-0.317683 -3.56429,-0.230498 -6.519501,0.857069 -9.423485,3.467999 -2.797809,2.515471 -3.729021,5.512603 -4.033593,12.982233 -0.118671,2.91041 -0.359555,5.76791 -0.535297,6.34999 -0.550442,1.82315 -1.762007,3.65426 -3.81966,5.77289 -4.56179,4.69696 -5.849149,10.88934 -3.36529,16.18753 l 0.74424,1.5875 h 1.91248 1.91248 l 0.492641,-1.4524 c 0.899095,-2.65071 2.966206,-3.85306 5.538356,-3.22144 0.665733,0.16348 1.835305,0.37455 2.599049,0.46905 l 1.388626,0.17181 -0.165192,-2.74601 c -0.489216,-8.13228 2.002515,-16.36853 6.868286,-22.70268 1.39643,-1.81784 4.841456,-5.25239 6.241841,-6.22286 1.005215,-0.69661 1.109022,-0.71677 1.69935,-0.32997 0.532967,0.34921 0.64859,0.68674 0.759082,2.21594 0.165325,2.28808 1.228736,4.46902 3.236443,6.63758 1.916803,2.07038 4.479885,3.80316 9.030046,6.10478 5.65914,2.86258 8.37654,5.15893 10.71277,9.05287 1.18159,1.96941 2.41574,5.18203 2.89094,7.52541 0.17706,0.87313 0.485,1.77201 0.68432,1.99751 0.77862,0.88095 1.8332,4.79922 2.10758,7.83072 0.24157,2.66887 0.14182,2.55455 2.04064,2.33858 0.90863,-0.10335 2.17796,-0.36455 2.82074,-0.58046 z m -28.023891,-7.08843 c 0,-2.25557 -0.05162,-4.10104 -0.114711,-4.10104 -0.06309,0 -0.737189,0.38695 -1.497994,0.85989 -1.773975,1.10277 -4.013829,1.20819 -5.612314,0.26417 -0.554021,-0.32719 -1.123347,-0.59489 -1.265168,-0.59489 -0.156999,0 -0.2287,1.21376 -0.183314,3.1032 l 0.07454,3.1032 1.580751,0.35025 c 1.578915,0.34985 5.67977,1.02937 6.555186,1.0862 0.42235,0.0274 0.463021,-0.33016 0.463021,-4.07098 z m -2.377718,-5.86973 c 4.226617,-2.83857 6.410179,-6.7193 6.665017,-11.84539 l 0.07833,-1.57553 -1.50441,-0.84647 c -5.516807,-3.10409 -8.857574,-6.49153 -10.297907,-10.44178 -0.314441,-0.86239 -0.663672,-1.56797 -0.776069,-1.56797 -0.444329,0 -3.844008,3.96903 -5.324718,6.21646 l -1.568055,2.38 0.170279,3.17625 c 0.299543,5.58743 1.209918,8.14295 3.998625,11.22457 1.834401,2.02708 5.115128,4.2548 6.265974,4.2548 0.530447,0 1.377601,-0.3602 2.292938,-0.97494 z m 67.030929,-4.76661 c 0.56435,-1.10034 0.55079,-2.67783 -0.0305,-3.54773 -0.2537,-0.37968 -3.5999,-4.0336 -7.436,-8.11982 -7.63574,-8.13361 -7.21185,-7.83719 -8.50612,-5.94833 -0.92987,1.35705 -1.02473,3.56117 -0.21656,5.03162 0.37923,0.69 3.35324,3.71052 7.73441,7.85536 7.08484,6.70269 7.12036,6.73158 7.56936,6.15498 0.24811,-0.31863 0.64653,-0.96036 0.88539,-1.42608 z m 3.19078,-10.13634 c 0.95631,-2.42405 1.61072,-4.51008 1.6811,-5.35866 0.11672,-1.40753 -0.31277,-3.63428 -0.70098,-3.63428 -0.16031,0 -4.74037,5.54253 -6.71721,8.12878 -0.17325,0.22667 0.36776,0.99927 1.80643,2.57969 1.12957,1.24086 2.12374,2.25556 2.20928,2.25488 0.0855,-6.8e-4 0.86015,-1.78736 1.72138,-3.97041 z m -3.34895,-8.21962 c 2.37163,-2.97194 4.49276,-5.65905 4.71363,-5.97135 0.38302,-0.54159 0.17179,-0.88627 -4.57178,-7.460001 -2.73534,-3.790694 -5.09242,-6.860262 -5.23794,-6.82126 -0.33553,0.08993 -9.61182,13.415521 -9.63791,13.845071 -0.0107,0.17541 0.36758,0.96898 0.84052,1.76349 0.96485,1.62089 8.91783,10.26614 9.3217,10.13312 0.14285,-0.047 2.20015,-2.51713 4.57178,-5.48907 z"
       id="path6927" /><path
       style="fill:#ff9a6d;fill-opacity:1;stroke:#131313;stroke-width:1.75437;paint-order:fill markers stroke"
       d="m 439.23702,551.71669 c -0.43393,-1.17265 -1.06795,-4.93903 -1.40892,-8.36975 -0.82535,-8.30428 -4.70782,-23.38351 -7.037,-27.33116 -1.02871,-1.74354 -2.74538,-6.60106 -3.81483,-10.79449 -2.68693,-10.53577 -7.6657,-22.20304 -12.72733,-29.82527 -8.27521,-12.46151 -17.91724,-20.22465 -38.7304,-31.18319 -30.88925,-16.26379 -43.35284,-29.22461 -45.90186,-47.73305 -0.589,-4.27674 -1.49945,-7.03973 -2.72287,-8.26314 -1.66851,-1.66851 -2.12235,-1.72139 -4.92139,-0.57347 -4.01874,1.64814 -23.32426,20.92197 -28.97458,28.92703 -9.97793,14.13617 -18.3219,34.69675 -21.36398,52.64343 -0.94089,5.55081 -1.48332,14.2925 -1.48332,23.90508 0,17.57763 1.24761,16.14369 -11.90209,13.67966 -6.47681,-1.21365 -8.58421,-1.27436 -11.91014,-0.34316 -5.1274,1.43558 -9.76976,6.45606 -11.89981,12.86906 l -1.59617,4.80561 -7.10767,-0.26956 -7.10768,-0.26958 -3.13162,-7.84712 c -6.95039,-17.41611 -3.75231,-37.0313 8.43366,-51.72723 20.0638,-24.19637 19.75571,-23.52641 21.12947,-45.94817 2.2737,-37.11018 4.45613,-44.492 16.43204,-55.57958 10.99748,-10.18173 23.15193,-14.00467 38.85461,-12.22095 l 9.04227,1.02714 6.85895,-5.98202 c 3.77242,-3.29011 8.62572,-6.8853 10.7851,-7.98931 13.35396,-6.82736 33.09578,-6.75089 47.69888,0.18478 9.77499,4.64259 19.28358,14.614 24.73763,25.94168 5.36468,11.14209 6.65855,15.75445 9.86346,35.16111 3.97894,24.0936 7.1601,29.32785 27.43506,45.14137 9.58238,7.47381 16.53933,15.62624 18.55471,21.74316 0.77028,2.33789 1.82063,9.09589 2.33411,15.01779 1.13262,13.06242 2.3656,16.76241 8.78399,26.35931 7.79193,11.65067 9.48668,18.83638 6.50584,27.58466 -2.85999,8.39363 -11.16274,15.12876 -21.30171,17.2798 -10.79878,2.29102 -11.55151,2.28978 -12.40641,-0.0205 z"
       id="path6928"
       transform="scale(0.26458333)" /><path
       style="fill:#ffe1db;fill-opacity:1;stroke:#131313;stroke-width:1.75437;paint-order:fill markers stroke"
       d="m 327.24421,503.56267 c -6.39664,-3.46034 -12.23646,-8.15442 -18.32193,-14.7273 -9.91702,-10.7113 -13.03996,-19.19906 -14.73822,-40.05666 l -1.03339,-12.69187 4.69105,-6.95183 c 5.41598,-8.02614 14.54098,-19.5013 18.46787,-23.22429 l 2.70476,-2.56433 2.55104,6.21189 c 6.1932,15.08076 19.12728,28.14458 38.86742,39.25734 5.24764,2.95417 5.33803,3.07495 5.33803,7.13315 0,6.51694 -2.68204,17.9055 -5.72461,24.30802 -4.76571,10.02854 -18.98016,23.39641 -26.36908,24.79861 -1.81833,0.34506 -3.95007,-0.1496 -6.43294,-1.49273 z"
       id="path6929"
       transform="scale(0.26458333)" /><path
       style="fill:#ffe1db;fill-opacity:1;stroke:#131313;stroke-width:1.75437;paint-order:fill markers stroke"
       d="m 340.24115,538.31777 c -1.02119,-0.20647 -6.55649,-1.25671 -12.30067,-2.33387 l -10.44397,-1.95847 v -11.01955 c 0,-7.00891 0.35134,-11.01954 0.96534,-11.01954 0.53093,0 2.60308,0.83551 4.60478,1.8567 5.65216,2.88352 13.55969,2.53661 20.35353,-0.89291 l 5.44696,-2.74961 0.34094,7.50771 c 0.18752,4.12924 0.18537,10.58855 -0.005,14.35402 l -0.34572,6.8463 -3.37986,-0.10769 c -1.85892,-0.0592 -4.21537,-0.27662 -5.23655,-0.48309 z"
       id="path6930"
       transform="scale(0.26458333)" /><path
       style="fill:#ffe1db;fill-opacity:1;stroke:#131313;stroke-width:1.75437;paint-order:fill markers stroke"
       d="m 478.56565,680.99432 -21.3521,-0.51203 -6.0343,-3.03676 c -7.51436,-3.78161 -25.70842,-16.98248 -41.77667,-30.31146 -9.83718,-8.16017 -12.13923,-10.51599 -11.7931,-12.06858 0.23654,-1.06104 1.19561,-4.43572 2.13125,-7.49928 1.35238,-4.4281 1.7117,-8.80584 1.75259,-21.35211 0.0499,-15.30803 0.80849,-19.95957 3.25515,-19.95957 0.46743,0 7.24131,7.61629 15.05307,16.9251 15.24628,18.16807 37.48571,41.60799 43.2999,45.63723 5.04662,3.49731 9.96173,4.07504 48.8849,5.74607 18.89197,0.81106 34.43863,1.56382 34.54814,1.6728 0.10951,0.10899 0.48638,5.92237 0.83749,12.91863 l 0.63838,12.72046 -24.04629,-0.18424 c -13.22547,-0.10134 -33.65475,-0.41466 -45.39841,-0.69626 z"
       id="path6931"
       transform="scale(0.26458333)" /><path
       style="fill:#ffe1db;fill-opacity:1;stroke:#131313;stroke-width:1.75437;paint-order:fill markers stroke"
       d="m 569.11213,694.84291 c -2.56306,-0.5385 -5.22082,-1.9456 -6.96264,-3.68625 l -2.81718,-2.81528 -0.26902,-17.39065 c -0.29709,-19.20537 0.25507,-21.7039 5.67512,-25.67984 2.27056,-1.66559 3.96837,-1.92269 12.69677,-1.92269 10.92158,0 13.88361,1.10169 16.46457,6.12378 1.47828,2.87648 1.61223,34.58242 0.16366,38.73781 -1.53859,4.41359 -6.11499,6.7409 -14.06766,7.15404 -3.70598,0.19252 -8.60361,-0.0419 -10.88362,-0.52092 z"
       id="path6932"
       transform="scale(0.26458333)" /><path
       style="fill:#ffe1db;fill-opacity:1;stroke:#131313;stroke-width:1.75437;paint-order:fill markers stroke"
       d="m 241.4239,757.89426 -2.14632,-3.81886 1.55509,-9.87433 c 0.8553,-5.43089 1.76853,-10.98276 2.0294,-12.33748 0.43031,-2.23461 -0.54275,-3.24009 -10.48786,-10.83727 -19.71167,-15.05799 -40.87992,-36.00615 -43.06022,-42.61252 -1.74334,-5.28236 -0.38294,-29.09026 2.46269,-43.09893 0.46048,-2.26689 0.73653,-2.40013 3.46346,-1.67179 4.82872,1.28972 22.35314,3.67083 27.01644,3.67083 2.85983,0 4.48935,0.44216 4.82174,1.30837 0.27614,0.71961 -1.19912,7.63939 -3.27837,15.37729 -2.07924,7.7379 -3.78044,15.12649 -3.78044,16.4191 0,4.00582 8.86823,15.07344 30.72617,38.34654 l 13.55165,14.42902 -3.15161,5.56625 c -1.73339,3.06143 -6.26766,11.72819 -10.07614,19.25945 -3.80849,7.53126 -7.05386,13.69319 -7.21194,13.69319 -0.15808,0 -1.25327,-1.71849 -2.43374,-3.81886 z"
       id="path6933"
       transform="scale(0.26458333)" /><path
       style="fill:#f6fdfe;fill-opacity:1;stroke:#131313;stroke-width:1.75437;paint-order:fill markers stroke"
       d="m 323.4022,727.92666 c -7.79937,-3.73774 -22.6496,-12.97647 -30.21258,-18.79605 l -5.40038,-4.1555 -0.0331,-15.49564 c -0.0445,-20.81551 -1.14042,-32.34743 -3.50876,-36.92083 -1.03684,-2.00218 -4.4726,-6.53503 -7.63503,-10.073 l -5.74988,-6.43268 13.95359,-2.99496 c 19.67099,-4.22212 43.02372,-12.30829 59.9373,-20.75401 14.42693,-7.20404 27.36282,-12.62251 26.19151,-17.2894 -1.04485,-4.163 -16.16843,0.87792 -28.98986,6.85263 -31.8451,14.83961 -52.99653,20.95022 -84.33721,24.36488 -12.14693,1.32344 -40.20529,0.58045 -50.6714,-1.34179 -8.43237,-1.54872 -11.7048,-3.12094 -15.50523,-7.44938 -3.66642,-4.17583 -4.35325,-8.72537 -3.58016,-23.71484 0.75909,-14.71815 2.07931,-20.13103 5.53636,-22.69902 l 2.62094,-1.9469 9.91182,3.58388 c 37.0919,13.41157 43.14507,15.18535 63.75626,18.68275 7.14831,1.21295 18.94055,2.70643 26.20497,3.31883 11.90335,1.00346 13.43937,0.96188 15.5499,-0.42099 3.15116,-2.06473 3.31675,-7.40305 0.28004,-9.02825 -1.13401,-0.6069 -7.6576,-1.44595 -14.49687,-1.86457 -25.26307,-1.54628 -50.12499,-7.26378 -77.08914,-17.72819 l -9.63194,-3.73803 0.62105,-6.06174 c 1.49302,-14.57278 3.54385,-18.64819 10.32655,-20.52098 5.4093,-1.49359 10.43234,0.0385 26.88333,8.19983 30.36337,15.06323 57.77507,22.56083 92.51136,25.30355 l 13.60142,1.07395 0.59563,3.77748 c 1.28135,8.12643 8.35495,16.66221 16.06619,20.81089 3.02893,1.62957 4.12183,1.53365 11.06421,1.53365 h 8.51123 l 0.60578,6.96264 c 1.095,12.58571 -1.90398,24.64126 -9.2949,37.36432 -5.96278,10.26462 -6.83635,14.62304 -7.55309,37.68419 l -0.61882,19.91081 -4.34928,5.20434 c -6.77032,8.10133 -23.69701,23.97851 -27.78926,26.06621 -5.45131,2.78106 -10.57496,2.42568 -18.28253,-1.26808 z"
       id="path6934"
       transform="scale(0.26458333)" /><path
       style="fill:#f6fdfe;fill-opacity:1;stroke:#131313;stroke-width:1.75437;paint-order:fill markers stroke"
       d="m 485.66705,642.83754 c -14.70967,-1.20356 -14.53164,-1.12816 -23.64111,-10.0131 -9.57182,-9.33589 -26.17268,-27.64875 -35.81516,-39.50868 l -6.71286,-8.25658 4.92557,-2.69356 c 6.59748,-3.60786 9.64401,-6.68783 12.42047,-12.55679 1.35455,-2.86328 2.92989,-4.90641 3.78305,-4.90641 3.51071,0 26.01128,26.68056 37.9711,45.02509 10.4452,16.02132 19.18471,32.26418 17.82464,33.12805 -0.63072,0.40061 -1.35564,0.67525 -1.61093,0.6103 -0.2553,-0.0649 -4.37044,-0.43768 -9.14477,-0.82832 z"
       id="path6935"
       transform="scale(0.26458333)" /><path
       style="fill:#ffc564;fill-opacity:1;stroke:#131313;stroke-width:1.75437;paint-order:fill markers stroke"
       d="m 378.17797,585.34713 c -7.34631,-1.6942 -11.11799,-7.12756 -12.73388,-18.344 -2.04668,-14.20672 4.48191,-24.38117 15.64456,-24.38117 10.18317,0 16.28898,8.14047 17.79451,23.72424 0.59774,6.18721 -0.68361,9.87386 -5.05669,14.54884 -3.37105,3.60379 -10.5144,5.63611 -15.6485,4.45209 z"
       id="path6936"
       transform="scale(0.26458333)" /><path
       style="fill:#000000;fill-opacity:1;stroke:#131313;stroke-width:0.438592;paint-order:fill markers stroke"
       d="m 359.00447,602.39891 c 0.10224,-2.25154 -0.52055,-3.92234 -1.78143,-4.77913 -0.57527,-0.3909 -0.71987,-0.59324 -0.4869,-0.68128 0.18227,-0.0689 1.58467,-0.49388 3.11645,-0.94443 6.34016,-1.86487 10.09583,-1.95829 10.09583,-0.25112 0,1.35527 -2.75982,3.79097 -7.00565,6.1829 -1.189,0.66984 -2.57987,1.45412 -3.09082,1.74285 l -0.92899,0.52496 z"
       id="path6937"
       transform="scale(0.26458333)" /><path
       style="fill:#ce5184;fill-opacity:1;stroke:#131313;stroke-width:1.24052;paint-order:fill markers stroke"
       d="m 223.19105,625.28883 c -17.91172,-1.06898 -24.31457,-2.72289 -29.31703,-7.57281 -4.70476,-4.5613 -5.06214,-6.24205 -4.60663,-21.66463 0.38065,-12.88798 1.3244,-19.245 3.30608,-22.26941 2.41707,-3.68893 2.50423,-3.67478 23.50305,3.81533 22.64816,8.07842 34.02181,11.40431 47.15763,13.78988 21.66655,3.93482 44.00133,5.95932 47.90521,4.34228 5.04083,-2.08798 5.22315,-9.96704 0.27416,-11.84864 -0.86785,-0.32995 -6.81988,-1.05249 -13.22675,-1.60563 -18.81026,-1.62401 -28.53608,-3.17433 -43.81462,-6.98414 -8.36221,-2.08517 -29.74531,-9.07703 -37.41732,-12.23473 -5.42817,-2.23417 -5.42295,-2.21928 -4.03928,-11.51787 1.24836,-8.38926 3.09657,-12.12234 6.96826,-14.07472 5.42276,-2.73454 8.83881,-1.86488 27.59568,7.02535 35.63989,16.89232 56.91385,22.44557 100.05801,26.11867 l 5.85828,0.49875 0.72822,3.61044 c 0.95235,4.72168 3.83066,9.89017 7.91254,14.2083 l 3.28975,3.48016 -1.97686,0.39173 c -4.72861,0.93702 -13.3231,4.13582 -24.62419,9.16494 -24.75985,11.01842 -37.75405,15.44718 -56.853,19.37693 -17.39962,3.58011 -39.71169,5.08193 -58.68119,3.94982 z"
       id="path6938"
       transform="scale(0.26458333)" /><path
       style="fill:#ce5184;fill-opacity:1;stroke:#131313;stroke-width:1.24052;paint-order:fill markers stroke"
       d="m 481.93641,641.30151 c -6.33539,-0.69079 -8.69577,-1.23271 -10.83847,-2.48841 -4.92291,-2.88502 -28.01454,-27.23612 -43.35125,-45.71571 l -6.26521,-7.54911 2.33102,-1.31289 c 7.71804,-4.347 11.01968,-7.75887 15.49695,-16.01436 1.12302,-2.07071 1.14793,-2.07907 2.85753,-0.9589 4.00194,2.62217 20.0039,21.71384 30.50204,36.39148 8.15851,11.40655 22.23861,35.33327 22.27736,37.85654 0.0154,1.00564 -2.19917,0.97012 -13.00997,-0.20864 z"
       id="path6939"
       transform="scale(0.26458333)" /><path
       style="fill:#ce5184;fill-opacity:1;stroke:#131313;stroke-width:1.24052;paint-order:fill markers stroke"
       d="m 409.86883,571.96178 c 0.48443,-2.58225 -0.35819,-9.70595 -1.9647,-16.60994 -1.23159,-5.29273 -3.92001,-11.34066 -6.68487,-15.03841 l -1.91862,-2.56598 4.01151,-3.30177 c 2.20633,-1.81597 5.63621,-4.77199 7.62196,-6.56894 6.07011,-5.49298 8.51025,-7.047 9.89859,-6.30398 1.42881,0.76467 3.32748,6.5401 5.24761,15.96233 1.88805,9.2648 1.6471,25.64783 -0.43581,29.63275 -1.74691,3.3421 -6.90276,6.13502 -12.36652,6.69893 l -3.8409,0.39642 z"
       id="path6940"
       transform="scale(0.26458333)" /><path
       style="fill:#ce5184;fill-opacity:1;stroke:#131313;stroke-width:1.24052;paint-order:fill markers stroke"
       d="m 347.91546,558.51634 c -20.1098,-0.75599 -43.75464,-5.36103 -65.41406,-12.73996 -17.02604,-5.80044 -35.90452,-14.74173 -38.05496,-18.02371 -0.97976,-1.4953 -0.92495,-1.83574 0.93573,-5.81192 1.08705,-2.32296 2.55229,-4.53175 3.25608,-4.90841 1.94286,-1.03979 5.03571,0.0907 11.66288,4.26284 21.49921,13.53498 45.87197,22.19391 75.47011,26.81234 13.85058,2.16121 18.79939,3.16373 18.74831,3.79799 -0.0218,0.27079 -0.0396,1.96933 -0.0396,3.77456 0,2.25771 -0.25612,3.2415 -0.82055,3.15178 -0.45131,-0.0717 -3.03606,-0.21372 -5.74389,-0.31551 z"
       id="path6941"
       transform="scale(0.26458333)" /><path
       style="fill:#ce5184;fill-opacity:1;stroke:#131313;stroke-width:1.24052;paint-order:fill markers stroke"
       d="m 191.55981,795.05359 -11.60969,-2.03542 -0.53239,-4.94009 c -0.76197,-7.07026 -0.49789,-54.29151 0.39474,-70.5845 0.71745,-13.09565 1.6911,-23.68896 2.38984,-26.00171 0.23021,-0.76195 2.87584,1.52752 9.48203,8.20555 l 9.16274,9.26238 0.0274,10.83133 c 0.0685,27.07454 1.74958,54.70687 4.25325,69.91132 0.53506,3.24939 0.978,6.27724 0.98431,6.72855 0.0153,1.09354 -1.01402,0.99612 -14.55223,-1.37741 z"
       id="path6942"
       transform="scale(0.26458333)" /><path
       style="fill:#ff7b72;fill-opacity:1;stroke:#131313;stroke-width:1.24052;paint-order:fill markers stroke"
       d="m 498.74216,790.19478 c 0.71933,-23.3522 -1.52248,-46.33245 -6.4513,-66.131 -1.58415,-6.36335 -7.89904,-27.1686 -9.56042,-31.49809 -0.33851,-0.88214 1.6581,-1.00166 16.73231,-1.00166 h 17.11668 l 1.63233,5.41566 c 1.98304,6.57923 4.33282,16.86063 6.56373,28.71944 3.77974,20.0919 3.82677,20.63848 4.13815,48.08454 l 0.29602,26.09366 h -15.38287 -15.38288 z"
       id="path6943"
       transform="scale(0.26458333)" /><path
       style="fill:#ff7b72;fill-opacity:1;stroke:#131313;stroke-width:1.24052;paint-order:fill markers stroke"
       d="m 572.26806,573.56817 c -0.27381,-50.0816 -0.46947,-59.32695 -1.30483,-61.65739 -0.5405,-1.50784 -2.81288,-5.7197 -5.04974,-9.3597 -6.81999,-11.09804 -8.77087,-15.78806 -9.12712,-21.94205 l -0.30779,-5.31683 13.55019,13.05245 13.55018,13.05245 v 65.54347 65.54348 h -5.49439 -5.4944 z"
       id="path6944"
       transform="scale(0.26458333)" /><path
       style="fill:#ff7b72;fill-opacity:1;stroke:#131313;stroke-width:1.24052;paint-order:fill markers stroke"
       d="m 570.46449,798.92377 c 0.008,-1.10024 0.44565,-11.74863 0.97272,-23.6631 0.52706,-11.91446 0.96367,-32.37091 0.97024,-45.45876 l 0.0119,-23.79611 h 5.49488 5.49488 l 0.41078,38.89432 c 0.22593,21.39188 0.59651,40.92856 0.82351,43.41485 0.31911,3.49506 0.22923,4.40711 -0.39621,4.02057 -0.59677,-0.36881 -0.68458,-0.091 -0.33479,1.05925 0.64543,2.12241 0.64291,2.04056 0.11099,3.59671 -0.7051,2.06283 -4.17101,3.47131 -9.14238,3.71528 l -4.431,0.21744 z"
       id="path6945"
       transform="scale(0.26458333)" /><path
       style="fill:#c84343;fill-opacity:1;stroke:#131313;stroke-width:1.24052;paint-order:fill markers stroke"
       d="m 585.09003,486.86056 c -13.94508,-11.62536 -50.34013,-47.65694 -52.14011,-51.61939 -1.51618,-3.33771 -1.62769,-10.59251 -0.21503,-13.98915 1.62652,-3.91083 4.29445,-7.36391 5.68952,-7.36391 0.73761,0 4.46265,3.11083 8.8431,7.38499 9.62949,9.39584 43.93455,46.32908 46.32221,49.87105 2.47808,3.6761 2.51819,8.8141 0.10443,13.37805 -1.81622,3.43412 -3.42843,5.51344 -4.27486,5.51344 -0.28635,0 -2.23451,-1.42878 -4.32926,-3.17508 z"
       id="path6946"
       transform="scale(0.26458333)" /><path
       style="fill:#c84343;fill-opacity:1;stroke:#131313;stroke-width:1.24052;paint-order:fill markers stroke"
       d="m 594.01514,454.45294 c -3.06856,-3.35583 -6.41389,-7.21215 -7.43406,-8.5696 l -1.85487,-2.46809 2.41901,-3.11168 c 4.15872,-5.34956 17.82335,-22.00815 20.59102,-25.10258 l 2.64206,-2.95399 0.75682,1.96089 c 0.41625,1.0785 0.91765,4.3279 1.11423,7.22089 0.32681,4.8097 0.14893,5.90088 -2.07795,12.74643 -2.3947,7.36144 -7.71294,20.94425 -9.61026,24.54461 l -0.9668,1.83462 z"
       id="path6947"
       transform="scale(0.26458333)" /><path
       style="fill:#588edd;fill-opacity:1;stroke:#131313;stroke-width:1.24052;paint-order:fill markers stroke"
       d="m 568.91529,428.16577 c -14.6985,-15.19965 -26.49139,-29.04045 -29.0564,-34.10224 l -1.60477,-3.16687 2.40944,-3.76661 c 6.64117,-10.38196 31.70554,-46.0164 33.29411,-47.3348 0.74573,-0.6189 2.03536,0.68637 6.87805,6.96146 12.62536,16.35979 29.37309,40.16719 30.63801,43.55285 0.34094,0.91254 -8.51901,15.72724 -22.94121,30.47121 -1.64002,1.67661 -4.74752,5.71927 -7.22275,8.69789 -2.47524,2.97861 -4.81258,5.41566 -5.1941,5.41566 -0.38152,0 -3.62169,-3.02785 -7.20038,-6.72855 z"
       id="path6948"
       transform="scale(0.26458333)" /><path
       style="fill:#f6fdfe;fill-opacity:1;stroke:#131313;stroke-width:0.877183;stroke-opacity:0;paint-order:fill markers stroke"
       d="m 349.52467,795.81588 c -43.89075,-0.60665 -98.43578,-3.8006 -102.55521,-6.00526 -0.84147,-0.45034 -0.81717,-0.65285 0.62774,-5.23155 3.63776,-11.52749 8.302,-22.66147 14.80442,-35.3395 6.86408,-13.38319 18.25697,-32.07657 20.35659,-33.40098 0.76498,-0.48254 1.37021,-0.10984 10.34234,6.36867 9.54956,6.89544 25.73721,15.93265 32.51905,18.15466 10.32048,3.38142 18.73802,1.35093 28.53091,-6.88228 5.28835,-4.44609 22.02504,-21.15791 24.83555,-24.79864 1.23174,-1.59561 2.42386,-2.90111 2.64913,-2.90111 0.66729,0 10.25556,8.98747 14.50969,13.6005 5.92438,6.42418 10.42581,12.243 16.23059,20.98063 7.75271,11.66975 13.24771,21.88081 18.54166,34.45499 3.02199,7.17782 7.04023,18.60869 6.67116,18.97776 -1.82726,1.82726 -39.52853,2.69296 -88.06362,2.02211 z"
       id="path7134"
       transform="scale(0.26458333)" /></g></svg>
