<?xml version="1.0" encoding="UTF-8" standalone="no"?>
<!-- Created with Inkscape (http://www.inkscape.org/) -->

<svg
   width="180.04884mm"
   height="181.81209mm"
   viewBox="0 0 180.04884 181.81209"
   version="1.1"
   id="svg1"
   xml:space="preserve"
   xmlns="http://www.w3.org/2000/svg"
   xmlns:svg="http://www.w3.org/2000/svg"><defs
     id="defs1" /><g
     id="layer1"
     transform="translate(-5.0424358,-32.431443)"><path
       d="m 103.39989,33.381942 c -9.101467,0 -8.359031,-0.897044 -22.266341,26.9012 l -11.031368,22.049817 -3.01842,1.327568 c -6.55604,2.88302 -14.262957,7.316169 -17.905367,10.299629 -4.52074,3.70287 -3.709563,11.196294 1.466577,13.547494 1.11089,0.5046 2.310446,0.64926 5.432226,0.65526 3.07313,0.006 3.96049,0.11083 3.80907,0.44907 -4.47191,9.9895 -5.874676,19.48619 -3.945496,26.70638 0.28272,1.05813 0.474648,1.96293 0.426848,2.01073 -0.0598,0.0598 -19.444523,0.29869 -24.235213,0.29869 -0.0033,0 -0.706966,-9.27901 -1.564246,-20.61993 l -1.559078,-20.619935 1.252637,-1.386479 c 5.81972,-6.44174 3.661178,-17.709431 -4.120162,-21.507731 -14.54186,-7.09833 -27.5430311,12.366192 -15.333431,22.956222 l 1.515153,1.314131 0.936377,12.523272 c 1.00641,13.46046 1.087285,13.84848 3.041675,14.58618 1.46649,0.55354 1.552559,4.03459 0.122989,4.97128 -1.64816,1.07991 -1.667014,0.48138 1.244886,39.32576 3.09877,41.33712 2.764155,38.9193 5.636865,40.70605 2.44683,1.52185 9.759666,0.78218 11.870076,-1.20045 2.1633,-2.03231 2.150467,-1.40868 0.490927,-23.59752 -0.8282,-11.07342 -1.444959,-20.17591 -1.370459,-20.22771 0.07451,-0.0518 1.032872,-0.0326 2.130102,0.0424 l 1.995227,0.13591 0.239262,1.29243 c 0.82063,4.42746 4.955337,7.79503 9.014437,7.34219 0.88125,-0.0983 4.350067,-0.99434 7.708057,-1.99161 3.35799,-0.99727 6.15214,-1.76289 6.20944,-1.70119 0.05729,0.0617 -0.750413,7.25589 -1.794723,15.98714 -2.62014,21.90648 -2.498307,23.29634 2.307353,26.34516 l 1.56838,0.99529 h 39.67561 39.67562 l 1.46709,-0.8599 c 2.61162,-1.53051 4.41814,-4.89301 4.41214,-8.21293 -0.002,-1.12189 -0.86258,-9.26148 -1.91307,-18.0883 -1.05048,-8.82682 -1.85788,-16.10123 -1.79368,-16.16543 0.0642,-0.0641 2.79044,0.68192 6.05854,1.6583 3.26811,0.97637 6.58377,1.87603 7.36803,1.99936 4.19932,0.66035 8.89058,-2.81941 9.52758,-7.06727 l 0.22324,-1.48879 3.20497,-0.3943 c 3.87476,-0.47707 6.2922,-1.5669 8.60465,-3.87935 6.59,-6.59 4.71536,-17.89706 -3.67161,-22.1449 l -2.0283,-1.02732 -12.10107,-0.10542 c -11.19948,-0.0976 -12.08736,-0.15054 -11.91917,-0.7059 2.395,-7.90805 1.22724,-17.16555 -3.55741,-28.20448 -0.14644,-0.33786 0.74555,-0.44307 3.81527,-0.44907 3.12178,-0.006 4.32135,-0.15066 5.43223,-0.65526 3.84342,-1.74582 5.56891,-6.9197 3.63802,-10.908378 -1.34384,-2.776 -10.86417,-8.947805 -19.71301,-12.779065 L 136.71879,82.364998 125.69982,60.355489 C 111.76746,32.527151 112.4738,33.381942 103.39989,33.381942 Z m 0.32349,5.415173 c 1.7182,0.08666 3.41659,0.892301 4.84622,2.403988 0.87889,0.929328 14.23324,26.855933 14.23324,27.632938 0,0.09803 -1.8752,-0.254506 -4.07314,0.178284 -5.39681,1.062673 -15.77085,-0.286274 -18.08365,0.21239 -1.471157,-0.124311 -3.189377,-0.21239 -5.407419,-0.21239 -6.18272,0 -11.241174,-0.08027 -11.241174,-0.178284 0,-1.193222 13.570186,-27.052298 14.760856,-28.127999 1.509187,-1.363457 3.246877,-1.995591 4.965067,-1.908927 z m 8.73539,35.818486 1.80557,0.639754 5.91489,-0.245463 h 5.79138 l 1.59111,3.167765 c 0.87508,1.74238 1.59112,3.250327 1.59112,3.351217 0,0.10084 -11.67436,0.183451 -25.94312,0.183451 H 77.266602 l 1.689302,-3.26285 1.689819,-3.263367 12.7,-0.08371 c 6.984997,-0.04596 13.042607,-0.274451 13.487547,-0.269751 2.95314,0.03127 4.70016,-0.03297 5.6255,-0.217041 z m -92.619154,3.656107 c 1.961723,0.01336 3.956693,0.820795 5.54178,2.540414 3.19392,3.46498 2.614736,8.592326 -1.275374,11.288716 -5.36819,3.72091 -13.414447,-1.636935 -11.748637,-7.823295 1.0352,-3.844425 4.212693,-6.028107 7.482231,-6.005835 z m 114.428674,9.784416 4.23333,1.950268 c 7.87934,3.63002 15.68322,8.576679 15.98249,10.130648 0.0617,0.3201 -0.21497,0.9095 -0.61495,1.30948 l -0.7276,0.72709 h -49.66312 c -53.699209,0 -51.230983,0.085 -51.230983,-1.77044 0,-1.492885 5.436853,-5.16051 13.758333,-9.2816 l 5.820834,-2.882512 31.220836,-0.09147 z M 22.919531,99.581002 c 0.07115,0.04843 0.835488,9.475578 1.698088,20.949628 l 1.567863,20.86229 -1.222665,1.82159 c -0.67263,1.00192 -1.466009,2.61518 -1.763199,3.58532 -0.29719,0.97014 -0.595076,2.08156 -0.661976,2.46961 -0.06693,0.38806 -0.410324,-3.34275 -0.762744,-8.29045 -0.69013,-9.68917 -0.870549,-10.48301 -2.569869,-11.28871 -1.57624,-0.74735 -1.919944,-4.36296 -0.480074,-5.05189 1.46926,-0.70298 1.592031,-1.76173 1.097091,-9.48521 -0.25143,-3.92339 -0.506807,-7.45672 -0.567407,-7.85172 -0.06062,-0.395 -0.216532,-2.25042 -0.346232,-4.12326 l -0.235645,-3.405479 2.058789,-0.140043 c 1.13235,-0.077 2.11688,-0.100076 2.18798,-0.05168 z m 44.098601,8.589658 h 1.610237 c 0.88566,0 1.608104,0.0399 1.606104,0.0884 -0.0023,0.0485 -0.238603,0.96115 -0.525033,2.0283 -2.40631,8.96499 1.769976,17.44505 9.801986,19.90317 0.59184,0.18111 0.594505,0.24647 0.04393,1.08676 -1.44484,2.20511 -0.121739,5.44077 2.847371,6.96288 6.5689,3.36753 14.296731,3.60523 19.056723,0.58653 1.95482,-1.23971 1.94299,-1.23897 3.56464,-0.13849 8.30346,5.63489 25.9267,-0.19076 22.19865,-7.33806 -0.46496,-0.89145 -0.45626,-1.00478 0.0904,-1.18132 8.45111,-2.72905 12.76446,-12.63718 9.3617,-21.50463 -0.14471,-0.37711 0.18019,-0.49351 1.37821,-0.49351 h 1.56787 l 1.41954,2.91042 c 9.82686,20.14464 3.09333,35.97767 -19.47219,45.7848 -8.09121,3.5165 -14.22577,7.00127 -16.37781,9.30382 -1.28426,1.37406 -2.33938,1.14799 -4.96559,-1.0635 -1.261182,-1.06202 -2.346127,-2.08438 -2.411227,-2.27169 -0.06508,-0.18726 -0.263857,-0.25075 -0.441317,-0.14108 -0.17745,0.10968 -0.322461,0.0608 -0.322461,-0.10904 0,-0.28944 -3.657771,-2.11539 -11.738301,-5.85959 -1.89653,-0.87878 -3.538437,-1.59567 -3.648357,-1.59267 -0.10992,0.003 -0.435193,-0.28315 -0.722953,-0.63562 -0.28773,-0.35247 -0.422583,-0.44252 -0.299723,-0.19998 0.32785,0.64724 -0.03357,0.54903 -1.872237,-0.50798 -17.23624,-9.90869 -21.64919,-24.19116 -13.15527,-42.57622 z m 9.974068,0 h 26.37978 26.37927 l 0.59428,1.49965 c 3.00495,7.58192 0.0248,14.08183 -6.83731,14.9133 l -1.5875,0.19224 -1.17253,-1.62006 c -3.45743,-4.77507 -10.67779,-7.34357 -15.7763,-5.61258 -1.47796,0.50178 -1.7778,0.50178 -3.25045,0 -4.962217,-1.69079 -11.34257,0.47754 -15.46934,5.25756 -1.80152,2.0867 -2.176973,2.20715 -4.548043,1.45728 -5.90712,-1.86817 -7.990424,-7.32445 -5.419824,-14.195 z"
       style="fill:#000000;fill-opacity:1;stroke:#131313;stroke-width:1.88976;stroke-opacity:0;paint-order:fill markers stroke"
       id="path7127" /><path
       style="fill:#ebebeb;fill-opacity:1;stroke:#131313;stroke-width:3.50873;stroke-opacity:0;paint-order:fill markers stroke"
       d="m 334.75088,505.51681 -5.95445,-1.91286 5.84891,-8.5011 c 18.24702,-26.52113 31.07966,-32.97656 48.19558,-24.24467 l 7.63863,3.89694 8.87971,-4.15903 c 16.15361,-7.56594 27.98636,-2.18074 44.53728,20.26937 l 9.06907,12.30153 -5.07077,2.23713 c -2.78891,1.23043 -10.08386,2.26698 -16.21099,2.30346 -8.96977,0.0534 -12.96671,-0.98133 -20.51498,-5.31093 -5.15611,-2.95748 -10.4804,-6.70947 -11.83175,-8.33774 -4.11818,-4.96211 -12.69272,-3.5777 -21.24481,3.43009 -4.28938,3.51483 -10.12413,7.27466 -12.96611,8.35517 -6.36045,2.41825 -22.36556,2.24575 -30.37532,-0.32736 z"
       id="path7119"
       transform="scale(0.26458333)" /><path
       style="fill:#ebebeb;fill-opacity:1;stroke:#131313;stroke-width:3.50873;stroke-opacity:0;paint-order:fill markers stroke"
       d="m 380.64474,623.69026 c -4.5842,-3.64373 -8.76178,-7.29802 -9.28352,-8.12067 -1.29366,-2.03976 -62.6592,-31.47883 -68.05019,-32.64591 -5.3474,-1.15766 -30.90172,-20.27524 -41.16511,-30.79627 -32.02778,-32.83177 -36.98265,-75.63428 -14.74321,-127.35885 5.39616,-12.5504 6.8776,-14.51495 11.33755,-15.03485 5.02934,-0.58628 5.10075,-0.45839 3.62853,6.49846 -0.82597,3.90308 -1.43868,13.78065 -1.36156,21.95015 0.22845,24.20112 10.71816,41.39393 31.37989,51.43217 7.66512,3.724 7.84477,4.01412 6.06891,9.80041 -4.21336,13.72836 8.89028,25.61509 35.0012,31.75069 16.37686,3.84827 32.67174,2.49431 46.91646,-3.89834 l 10.69666,-4.80037 10.09488,5.19817 c 9.16454,4.71912 11.80598,5.18408 28.66192,5.04529 21.83175,-0.17977 35.88962,-4.64027 46.67113,-14.80854 6.3161,-5.95687 6.6683,-6.89072 5.84198,-15.49038 -0.87706,-9.12778 -0.86064,-9.15979 6.37603,-12.42307 10.19467,-4.59715 21.61797,-16.59388 27.23032,-28.59722 3.86089,-8.25742 4.7828,-13.05472 4.81691,-25.06551 0.0232,-8.1695 -0.65085,-17.56907 -1.4979,-20.88793 -1.42173,-5.57074 -1.19462,-6.03429 2.95645,-6.03429 3.80179,0 5.51835,2.22318 11.11047,14.38946 8.79519,19.13496 12.18167,30.21071 14.23119,46.54417 4.09487,32.6338 -6.43725,60.74432 -31.93096,85.22464 -15.48662,14.87103 -26.1696,21.46022 -66.60755,41.08314 -18.72844,9.08818 -39.17948,20.39002 -45.44675,25.1152 -6.26727,4.72519 -12.11589,8.58314 -12.99693,8.57322 -0.88104,-0.01 -5.3526,-2.99924 -9.9368,-6.64297 z"
       id="path7120"
       transform="scale(0.26458333)" /><path
       style="fill:#84a3e3;fill-opacity:1;stroke:#131313;stroke-width:3.50873;stroke-opacity:0;paint-order:fill markers stroke"
       d="m 208.87928,383.90169 c -4.08475,-0.40717 -8.20081,-1.50025 -9.14681,-2.42907 -4.23435,-4.15743 16.63287,-18.97499 50.84488,-36.10433 l 21.27431,-10.65166 117.05019,-0.98236 117.05019,-0.98235 23.20881,11.63332 c 25.13947,12.60106 45.28884,24.99567 50.85145,31.28057 2.874,3.24716 3.0839,4.46864 1.1652,6.78054 -2.06715,2.49075 -23.49742,2.78346 -183.60584,2.50777 -99.69606,-0.17167 -184.60763,-0.64526 -188.69238,-1.05243 z"
       id="path7121"
       transform="scale(0.26458333)" /><path
       style="fill:#84a3e3;fill-opacity:1;stroke:#131313;stroke-width:3.50873;stroke-opacity:0;paint-order:fill markers stroke"
       d="m 295.21606,306.39742 c 0,-0.48797 2.22431,-5.42251 4.94291,-10.96563 l 4.94292,-10.07841 49.54636,-0.63878 c 54.57896,-0.70366 71.9305,-0.44684 71.9305,-11.38138 0,-10.9889 -17.35933,-11.7793 -63.90222,-13.26174 -23.3057,-0.74231 -42.68071,-1.65637 -43.05559,-2.03125 -0.81581,-0.81581 30.38009,-61.49743 44.20253,-85.98184 13.67882,-24.23 24.78334,-29.96209 39.21,-20.23997 7.15017,4.8185 10.44526,10.38745 38.97244,65.86625 l 20.77226,40.39729 -16.07287,2.14461 c -8.84008,1.17954 -17.29846,3.16175 -18.79639,4.40493 -3.7494,3.11172 -3.30914,11.16744 0.8851,16.19509 3.24599,3.89099 4.9595,4.17759 24.97701,4.17759 h 21.49194 l 5.62357,11.14023 5.62357,11.14023 h -95.64702 c -52.60586,0 -95.64702,-0.39925 -95.64702,-0.88722 z"
       id="path7122"
       transform="scale(0.26458333)" /><path
       style="fill:#84a3e3;fill-opacity:1;stroke:#131313;stroke-width:3.50873;stroke-opacity:0;paint-order:fill markers stroke"
       d="m 295.52759,784.62787 c -44.17369,-1.03166 -47.20432,-1.32431 -49.82771,-4.81187 -3.3888,-4.50509 -3.0118,-9.82639 6.1168,-86.33678 6.6571,-55.79578 7.25037,-74.94977 2.42272,-78.21793 -4.16834,-2.82184 -17.3052,-0.57677 -44.28207,7.56772 -13.7037,4.13724 -27.61688,7.52225 -30.91817,7.52225 -8.96831,0 -10.07903,-5.45272 -10.07903,-49.47974 v -37.78538 h 26.65935 26.65935 l 6.50047,9.79043 c 15.9891,24.08131 38.89492,40.86345 88.74066,65.01658 17.85789,8.65317 37.83023,19.69238 44.38297,24.53158 24.88072,18.37441 33.07129,18.36713 57.86684,-0.0514 6.55274,-4.8675 26.33895,-15.7975 43.96937,-24.28889 17.63041,-8.49139 38.05953,-19.32302 45.39804,-24.07028 16.3637,-10.58562 34.62148,-27.86556 43.37255,-41.04961 l 6.5569,-9.87837 h 26.95278 26.9528 l -0.594,40.56669 c -0.64244,43.87544 -1.28499,46.71348 -10.56903,46.68177 -2.68323,-0.009 -18.16318,-3.76899 -34.39989,-8.35517 -34.19549,-9.65877 -38.87173,-10.09028 -42.88996,-3.95769 -3.1061,4.74049 -2.84005,8.28657 6.49698,86.59771 8.80504,73.84915 8.79674,74.8525 -0.64299,77.75711 -7.17793,2.20866 -169.88589,3.76842 -234.84573,2.25131 z"
       id="path7123"
       transform="scale(0.26458333)" /><path
       style="fill:#ffd3bc;fill-opacity:1;stroke:#131313;stroke-width:3.50873;stroke-opacity:0;paint-order:fill markers stroke"
       d="m 307.57278,467.96637 c -19.09405,-6.80796 -26.56188,-26.74694 -18.68066,-49.87705 l 2.95959,-8.68592 h 98.98464 98.98464 l 2.95959,8.68592 c 8.33692,24.46751 -2.28673,47.46806 -23.78797,51.50172 -5.92362,1.11127 -7.07749,0.49223 -15.131,-8.11762 -4.7951,-5.12635 -13.36884,-11.5959 -19.05275,-14.37678 -8.67684,-4.24518 -12.43644,-4.99148 -23.44004,-4.65294 -16.91013,0.52025 -24.04698,0.51798 -40.49205,-0.0129 -16.97552,-0.54803 -26.36544,3.43804 -42.03611,17.84453 -6.22154,5.71965 -11.94578,10.36268 -12.72055,10.31786 -0.77476,-0.0448 -4.62106,-1.22688 -8.54733,-2.62679 z m 22.13778,-19.73291 c 5.49824,-6.07549 4.92612,-24.08825 -0.96424,-30.35825 -5.42777,-5.77759 -13.08467,-6.19822 -17.80864,-0.97829 -4.85322,5.36275 -4.85322,26.06783 0,31.43057 4.55585,5.03416 14.17553,4.98598 18.77288,-0.094 z m 140.51577,-0.34398 c 4.03784,-6.16249 5.30028,-18.03236 2.70675,-25.44931 -4.78594,-13.68677 -21.4375,-11.73087 -23.87282,2.80411 -1.51658,9.05161 0.84058,23.05518 4.24377,25.21159 5.04376,3.19595 14.0407,1.8315 16.9223,-2.56639 z"
       id="path7124"
       transform="scale(0.26458333)" /><path
       style="fill:#ffd3bc;fill-opacity:1;stroke:#131313;stroke-width:2.48105;stroke-opacity:0;paint-order:fill markers stroke"
       d="M 636.75093,571.28727 V 542.8794 h 4.77101 c 24.62849,0 39.26019,27.84185 23.85338,45.38924 -5.33041,6.071 -12.24838,9.50181 -21.30633,10.5664 l -7.31806,0.86009 z"
       id="path7125"
       transform="scale(0.26458333)" /><path
       style="fill:#ffd3bc;fill-opacity:1;stroke:#131313;stroke-width:2.48105;stroke-opacity:0;paint-order:fill markers stroke"
       d="m 133.25818,598.10597 c -8.57914,-2.08858 -17.29687,-8.66683 -21.01556,-15.85799 -8.84762,-17.10941 3.8409,-36.81158 25.12176,-39.00796 l 7.05336,-0.72797 v 28.41078 28.41078 l -3.61045,-0.13439 c -1.98574,-0.0739 -5.38284,-0.56588 -7.54911,-1.09325 z"
       id="path7126"
       transform="scale(0.26458333)" /><path
       style="fill:#000000;fill-opacity:1;stroke:#131313;stroke-width:0.054824;stroke-opacity:0;paint-order:fill markers stroke"
       d="m 426.1205,275.87792 c -0.0615,-0.15045 -0.29702,-1.00945 -0.38494,-1.40368 -0.13087,-0.58681 -0.24934,-1.31952 -0.30742,-1.90128 -0.0925,-0.92615 -0.0583,-2.41224 0.0724,-3.14769 l 0.0206,-0.11605 0.10717,0.19036 c 0.62841,1.11614 0.92429,2.34143 0.92429,3.82767 0,0.91606 -0.10474,1.69397 -0.31834,2.3644 -0.0769,0.24147 -0.0855,0.25547 -0.11375,0.18627 z"
       id="path7128"
       transform="scale(0.26458333)" /><path
       style="fill:#000000;fill-opacity:1;stroke:#131313;stroke-width:0.054824;stroke-opacity:0;paint-order:fill markers stroke"
       d="m 425.97155,275.3192 c -0.24876,-0.88866 -0.40324,-1.67437 -0.51562,-2.62255 -0.0708,-0.59689 -0.0704,-2.18123 6.6e-4,-2.81874 0.0274,-0.24568 0.0576,-0.45927 0.0671,-0.47464 0.0512,-0.0828 0.50999,0.93244 0.68981,1.52624 0.3749,1.238 0.4291,3.01796 0.13043,4.28345 -0.0861,0.36505 -0.17133,0.63825 -0.199,0.63825 -0.0134,0 -0.0914,-0.2394 -0.17334,-0.53201 z"
       id="path7129"
       transform="scale(0.26458333)" /><path
       style="fill:#000000;fill-opacity:1;stroke:#131313;stroke-width:0.054824;stroke-opacity:0;paint-order:fill markers stroke"
       d="m 426.11374,275.83946 c 0,-0.006 -0.0724,-0.27083 -0.16088,-0.58748 -0.37047,-1.32574 -0.56565,-2.68875 -0.56364,-3.93605 10e-4,-0.74903 0.0854,-1.88328 0.14242,-1.91851 0.0294,-0.0182 0.29791,0.50366 0.4472,0.86917 0.5149,1.26061 0.69039,2.91172 0.46782,4.40147 -0.074,0.49544 -0.25138,1.18315 -0.30514,1.18315 -0.0153,0 -0.0278,-0.005 -0.0278,-0.0118 z"
       id="path7130"
       transform="scale(0.26458333)" /><path
       style="fill:#e3986d;fill-opacity:1;stroke:#131313;stroke-width:0.877183;stroke-opacity:0;paint-order:fill markers stroke"
       d="m 310.91994,306.60412 c -8.0848,-0.13631 -14.84309,-0.39162 -15.01842,-0.56735 -0.25669,-0.25729 7.62412,-17.58026 8.99282,-19.76729 0.41163,-0.65773 3.64062,-0.7425 58.08786,-1.52487 47.67359,-0.68504 56.15681,-1.50157 61.29514,-5.89979 1.03444,-0.88544 1.93897,-1.53284 2.01008,-1.43867 0.0711,0.0942 0.59132,0.9399 1.15604,1.87941 1.38639,2.30653 3.84182,4.38936 5.96837,5.06273 1.19941,0.37979 8.06766,0.6218 21.73971,0.76603 l 19.98636,0.21083 5.42601,10.8637 5.426,10.8637 -80.18516,-0.1003 c -44.10183,-0.0552 -86.8,-0.21182 -94.88481,-0.34813 z"
       id="path7131"
       transform="scale(0.26458333)" /><path
       style="fill:#e3986d;fill-opacity:1;stroke:#131313;stroke-width:0.877183;stroke-opacity:0;paint-order:fill markers stroke"
       d="m 84.546346,557.44618 c -0.258668,-3.05123 -1.270011,-14.90215 -2.154041,-26.34392 -2.708641,-35.05723 -3.246198,-37.50986 -8.947767,-40.82464 -2.082363,-1.21065 -2.959111,-2.09289 -4.050198,-4.07558 -1.276893,-2.32032 -1.392528,-2.90332 -1.392528,-7.02064 0,-5.12815 0.45495,-6.10786 3.928266,-8.45929 2.868078,-1.94168 3.751662,-4.25646 4.064998,-10.64931 0.366636,-7.48031 -1.021383,-30.60049 -4.045141,-67.37974 -0.503733,-6.12713 -0.919276,-12.10113 -0.923429,-13.27556 l -0.0075,-2.13533 4.248895,-0.3016 c 2.336891,-0.16588 5.77942,-0.30159 7.650063,-0.30159 3.151238,0 3.417649,0.0767 3.625435,1.04439 0.428936,1.99754 4.068123,48.3996 10.182418,129.83262 l 2.002442,26.66947 -3.241355,4.89451 c 2.878917,-4.34722 10.672516,66.19477 11.990236,76.67775 7.96376,63.35489 35.42533,173.00723 -4.28116,161.63856 C 87.583175,701.82051 90.76289,630.77621 84.546346,557.44618 Z"
       id="path7132"
       transform="scale(0.26458333)" /><path
       style="fill:#000000;fill-opacity:1;stroke:#131313;stroke-width:1.24052;stroke-opacity:0;paint-order:fill markers stroke"
       d="m 316.48465,451.20528 c -3.4919,-1.00427 -5.14926,-2.39822 -6.77483,-5.69811 -1.37145,-2.78402 -1.50924,-3.96274 -1.50924,-12.9104 0,-8.97439 0.13497,-10.1207 1.52358,-12.94002 2.006,-4.07284 4.78012,-5.76864 9.4368,-5.76864 7.32042,0 12.24295,5.61501 13.63579,15.55402 1.59877,11.40847 -1.8774,19.84929 -8.98768,21.82383 -2.92496,0.81227 -4.32956,0.80063 -7.32442,-0.0607 z"
       id="path7133"
       transform="scale(0.26458333)" /><path
       style="fill:#000000;fill-opacity:1;stroke:#131313;stroke-width:1.24052;stroke-opacity:0;paint-order:fill markers stroke"
       d="m 455.60473,451.10427 c -1.34514,-0.46528 -2.75357,-1.62286 -3.4677,-2.85008 -3.3787,-5.80619 -4.14099,-22.01778 -1.29567,-27.55496 2.68793,-5.2309 8.23828,-8.19214 12.92785,-6.89728 3.64961,1.0077 6.03673,3.14126 8.00957,7.15877 1.69131,3.4442 1.84346,4.36293 1.81839,10.9796 -0.0433,11.42852 -2.99851,17.57329 -9.29198,19.32093 -3.17521,0.88173 -5.83631,0.83372 -8.70046,-0.15698 z"
       id="path7134"
       transform="scale(0.26458333)" /></g></svg>
