<?xml version="1.0" encoding="UTF-8" standalone="no"?>
<!-- Created with Inkscape (http://www.inkscape.org/) -->

<svg
   width="187.67778mm"
   height="200.18069mm"
   viewBox="0 0 187.67778 200.18069"
   version="1.1"
   id="svg1"
   xml:space="preserve"
   xmlns:xlink="http://www.w3.org/1999/xlink"
   xmlns="http://www.w3.org/2000/svg"
   xmlns:svg="http://www.w3.org/2000/svg"><defs
     id="defs1"><linearGradient
       id="linearGradient7877"><stop
         style="stop-color:#000000;stop-opacity:1;"
         offset="0"
         id="stop7877" /><stop
         style="stop-color:#384276;stop-opacity:0.70700639;"
         offset="1"
         id="stop7878" /></linearGradient><linearGradient
       xlink:href="#linearGradient7877"
       id="linearGradient7878"
       x1="70.554779"
       y1="115.1157"
       x2="744.53864"
       y2="842.94397"
       gradientUnits="userSpaceOnUse" /></defs><g
     id="layer1"
     transform="translate(-12.645949,-24.822764)"><g
       id="g7902"><g
         id="g7897"><path
           style="fill:#000000"
           d="m 142.29174,224.19416 c -6.05467,-1.47877 -7.2678,-2.3946 -14.32404,-10.81359 -1.86336,-2.22323 -5.43523,-6.26662 -7.9375,-8.98531 -7.41282,-8.05397 -10.73732,-11.74631 -14.60734,-16.22359 -2.01254,-2.32833 -11.209103,-12.72038 -20.436802,-23.09344 l -16.77764,-18.86011 -0.22136,3.69067 c -0.12174,2.02986 -0.2408,15.08605 -0.26458,29.01375 l -0.0432,25.32308 -9.19484,10.04289 -9.19483,10.04288 H 30.967778 12.645948 V 140.73445 57.137511 l 5.51585,-5.92041 c 3.03372,-3.25623 6.15765,-6.55542 6.94206,-7.33153 l 1.4262,-1.41111 1.592037,-2.062574 c 3.341927,-2.610732 -6.277867,7.398004 -9.103647,10.469694 -2.82578,3.07169 -5.26034,5.8023 -5.41015,6.06801 -0.30245,0.53647 -0.32785,71.756129 -0.0461,129.281799 l 0.18229,37.21806 17.42012,0.0915 17.42012,0.0915 9.17515,-9.96926 9.17515,-9.96925 0.0194,-29.54513 c 0.0156,-23.81005 0.10728,-29.54514 0.47237,-29.54514 0.24916,0 1.25903,0.83344 2.24415,1.85208 2.1684,2.2422 31.699592,35.47422 36.594892,41.18095 1.91682,2.23454 7.25259,8.1903 11.85728,13.23502 4.60468,5.04472 10.11957,11.23597 12.2553,13.75833 2.13574,2.52236 4.26121,4.93331 4.72328,5.35767 1.44741,1.32927 5.28668,2.87105 8.95401,3.59577 3.07033,0.60675 4.23682,0.66143 8.99584,0.42171 5.08065,-0.25593 5.78047,-0.37871 9.87777,-1.73314 8.23,-2.72055 14.18151,-7.2374 28.27221,-21.45693 l 7.6347,-7.70452 0.21613,-68.96805 c 0.11886,-37.932429 0.31924,-75.357739 0.44528,-83.167359 l 0.22917,-14.1993 h -18.1491 -18.1491 l -7.38526,8.20208 c -4.06189,4.51115 -8.0636,8.89766 -8.89269,9.74781 l -1.50745,1.54572 -0.003,28.79317 c -0.002,15.83624 -0.10318,29.626599 -0.22553,30.645239 -0.12235,1.01865 -0.39879,1.84396 -0.6143,1.83402 -0.2155,-0.01 -2.29683,-2.25919 -4.62516,-4.99834 -2.32834,-2.739159 -8.44321,-9.596969 -13.5886,-15.239579 -5.1454,-5.64261 -12.67458,-13.91054 -16.73151,-18.37318 -7.83208,-8.61531 -14.216103,-15.50835 -19.440292,-20.99033 -4.01513,-4.21326 -7.93661,-8.59665 -13.72869,-15.34583 -5.35039,-6.2345 -5.6519,-6.50831 -7.17791,-6.51854 -0.64334,-0.004 -1.48693,-0.17761 -1.87463,-0.3851 -0.52375,-0.28031 -0.85252,-0.25764 -1.27925,0.0882 -0.31588,0.25599 -0.47853,0.30489 -0.36143,0.10865 0.14006,-0.23471 -1.61722,-0.34685 -5.13575,-0.32774 -8.01479,0.0435 -8.1627,0.0568 -7.64172,0.68454 0.27694,0.33369 0.30059,0.52916 0.064,0.52916 -0.20633,0 -0.47326,-0.15875 -0.59318,-0.35277 -0.11991,-0.19403 -0.45615,-0.35278 -0.74719,-0.35278 -0.29104,0 -0.44741,0.13229 -0.34748,0.29398 0.0999,0.16169 -0.28237,0.29398 -0.84955,0.29398 -1.13454,0 -3.87661,1.1128 -3.87661,1.57322 0,0.44095 -1.8621,1.2599 -2.52158,1.10899 -0.59686,-0.13658 -2.62274,1.00283 -6.65064,3.74047 -3.27934,2.22887 -3.88918,2.74092 -3.60401,3.02609 0.13894,0.13894 0.0656,0.1997 -0.16293,0.13503 -0.22856,-0.0647 -1.41918,0.74 -2.64584,1.78818 l -5.096069,4.424191 5.158849,-4.825691 c 2.686064,-2.512598 12.02313,-9.089 13.22689,-9.089 0.43399,0 1.18061,-0.30798 1.65916,-0.68441 2.68121,-2.10904 8.3424,-3.16675 16.15839,-3.01894 6.16593,0.1166 8.4737,0.46428 9.57357,1.44231 0.41659,0.37045 3.86494,4.16604 7.66299,8.43465 3.79806,4.26862 10.56464,11.65049 15.036839,16.40417 10.728513,11.40373 39.653533,43.10658 45.291453,49.641029 l 4.45598,5.16456 0.21566,-11.615989 c 0.11861,-6.3888 0.23771,-20.02974 0.26468,-30.31321 l 0.049,-18.69722 3.96865,-4.24675 c 2.18276,-2.33571 5.87366,-6.30339 8.20199,-8.81708 2.32833,-2.51369 4.7334,-5.08734 5.34458,-5.71923 l 1.11125,-1.14889 h 18.37972 18.37972 l -0.007,12.61181 c -0.004,6.93649 -0.16192,44.83632 -0.35182,84.221849 l -0.34527,71.61005 -7.85026,7.87954 c -9.59772,9.63351 -14.18148,13.71129 -18.78637,16.71263 -4.55103,2.96623 -4.92159,3.14823 -9.48716,4.65955 -5.02647,1.66389 -7.144,1.97777 -13.09062,1.94044 -3.80838,-0.0239 -5.66564,-0.2085 -8.11389,-0.80645 z m 3.70417,-8.72577 c -2.97083,-0.48055 -3.69945,-0.90482 -5.89954,-3.43524 -1.11996,-1.28812 -3.06854,-3.45753 -4.33018,-4.82092 -1.26164,-1.36339 -4.75451,-5.24353 -7.76194,-8.62253 -3.00743,-3.37901 -7.54086,-8.45476 -10.07428,-11.27945 -2.53342,-2.82469 -6.96852,-7.83455 -9.85579,-11.13302 -2.88726,-3.29847 -6.61885,-7.50535 -8.292423,-9.34861 -1.67357,-1.84327 -7.120779,-8.06676 -12.104909,-13.82999 -4.98414,-5.76323 -12.24812,-13.89916 -16.14219,-18.07986 -7.04206,-7.56039 -7.08806,-7.60125 -8.55458,-7.59994 -1.6599,10e-4 -3.48363,0.9533 -4.18595,2.18466 -0.37092,0.65033 -0.49872,7.83992 -0.63988,35.99744 l -0.17639,35.18482 -6.52638,7.2205 -6.52639,7.2205 -10.67153,0.0162 c -7.42675,0.0113 -10.67153,-0.0998 -10.67153,-0.3654 0,-0.3735 2.8095,-3.56344 14.3757,-16.32235 l 5.73263,-6.3238 v -53.75 c 0,-40.283169 0.10152,-53.727909 0.40518,-53.661809 0.56362,0.12268 3.86835,3.69666 12.29482,13.29653 10.78726,12.289389 11.99601,13.642809 32.64398,36.551179 10.484119,11.63184 22.689562,25.27631 27.123192,30.32103 4.43364,5.04472 10.14713,11.39472 12.69665,14.11111 2.54952,2.71639 7.01283,7.54993 9.91847,10.74121 2.90564,3.19127 5.8879,6.44565 6.62723,7.23194 0.73934,0.78629 1.48328,1.77053 1.6532,2.18718 0.23532,0.57699 0.73219,0.81576 2.08465,1.00177 1.86519,0.25653 2.83498,-0.15543 4.37329,-1.85775 0.60733,-0.67209 0.64358,-4.04053 0.80603,-74.89381 0.13178,-57.475439 0.26668,-74.311189 0.59878,-74.727669 1.49419,-1.87382 11.71669,-13.3126 12.09445,-13.53344 0.25404,-0.14852 5.03355,-0.2279 10.62114,-0.17639 8.86238,0.0817 10.17273,0.16368 10.26479,0.64234 0.11813,0.61412 -2.23719,3.45456 -8.90585,10.74018 -2.48636,2.71639 -5.92415,6.5504 -7.63954,8.52002 l -3.1189,3.58113 -0.11091,71.031369 -0.11091,71.03136 -1.13469,3.31144 c -3.16194,9.22772 -10.49877,13.31721 -20.8795,11.63806 z m 9.67671,-1.23733 c 2.68163,-0.91372 4.55712,-2.11185 6.46717,-4.13145 2.15217,-2.2756 3.33816,-4.53138 4.3184,-8.21369 l 0.73955,-2.77814 -0.0282,-70.77307 -0.0282,-70.773069 2.4003,-2.6047 c 1.32016,-1.43259 5.32134,-5.85908 8.8915,-9.83665 3.57017,-3.97757 6.89012,-7.6685 7.37767,-8.20208 l 0.88647,-0.97014 -9.6792,0.005 -9.6792,0.005 -6.08541,6.92105 -6.08542,6.92104 -0.0396,45.72617 c -0.0218,25.149399 -0.0907,58.584919 -0.15308,74.301169 l -0.11345,28.575 -1.52262,1.32196 c -1.37344,1.19244 -1.71853,1.32205 -3.52224,1.32292 -1.09979,5.2e-4 -2.24122,-0.0918 -2.53652,-0.20508 -0.2953,-0.11332 -2.6474,-2.61363 -5.22688,-5.55625 -2.57949,-2.94262 -7.79118,-8.76334 -11.58154,-12.93494 -3.79036,-4.1716 -9.89375,-10.99785 -13.56308,-15.16944 -3.66934,-4.1716 -16.30335,-18.30035 -28.075572,-31.39722 -11.77217,-13.09695 -26.20512,-29.28945 -32.07317,-35.983399 -5.86805,-6.69396 -11.06943,-12.56771 -11.55862,-13.05278 l -0.88945,-0.88195 0.2124,53.269439 0.2124,53.26944 -7.66708,8.49414 c -4.2169,4.67178 -8.67562,9.63271 -9.90828,11.02431 l -2.24119,2.53016 9.64953,-0.02 9.64952,-0.02 6.61188,-7.30012 6.61187,-7.30011 0.0109,-35.10139 0.0109,-35.10138 1.59872,-1.6757 c 1.55382,-1.62863 1.65712,-1.67569 3.67756,-1.67569 h 2.07883 l 7.12905,7.67291 c 3.92098,4.22011 11.26797,12.43542 16.32664,18.25625 5.05867,5.82083 11.904532,13.59958 15.213012,17.28611 3.30848,3.68653 9.5826,10.74307 13.94248,15.6812 6.50457,7.36725 23.46696,26.3282 25.22654,28.1988 1.32721,1.41096 9.77632,1.98005 13.01474,0.87661 z m 21.01495,-30.41058 c 0,-10.63934 0.10557,-42.68761 0.2346,-71.21838 l 0.23459,-51.874129 6.15226,-6.76262 c 3.38374,-3.71944 6.31006,-6.71002 6.50294,-6.64573 0.23011,0.0767 0.40702,24.4535 0.51453,70.899839 l 0.16385,70.78294 -1.34093,1.52491 c -5.54837,6.30966 -11.53484,12.63742 -11.95581,12.63742 -0.43336,0 -0.50603,-2.77776 -0.50603,-19.34425 z m 5.81253,12.64147 c 1.21663,-1.26118 3.26442,-3.50307 4.55064,-4.98198 l 2.33858,-2.68892 -0.0891,-69.9658 -0.0891,-69.965809 -5.68265,6.28241 -5.68265,6.2824 -0.17063,64.961209 c -0.0939,35.72867 -0.0953,67.15474 -0.003,69.83572 l 0.16747,4.87451 1.22425,-1.17034 c 0.67333,-0.64369 2.21966,-2.20222 3.43629,-3.4634 z m -160.431892,5.42414 c -0.31273,-0.31273 -0.31763,-30.05178 -0.0152,-92.45697 l 0.23454,-48.403679 5.82595,-6.27688 c 3.20427,-3.45228 6.01651,-6.46763 6.24943,-6.70077 0.76658,-0.76734 0.88469,10.57287 0.79991,76.800279 l -0.0824,64.38194 -2.52221,2.64583 c -1.38721,1.45521 -4.00004,4.31271 -5.80628,6.35 -3.08338,3.47778 -4.08409,4.25983 -4.68368,3.66025 z m 8.76049,-10.0369 2.95041,-3.37803 0.368,-43.54141 c 0.2024,-23.94777 0.36868,-55.420759 0.36951,-69.939969 l 10e-4,-26.39857 -1.85208,2.04608 c -1.01865,1.12534 -3.63568,3.95595 -5.81563,6.29023 l -3.96355,4.24416 0.0115,69.673609 0.0115,69.6736 2.4842,-2.64583 c 1.36631,-1.45521 3.81188,-4.16595 5.43461,-6.02387 z M 142.79265,180.85178 c -0.66257,-0.82449 -3.4286,-3.9598 -6.14672,-6.96736 -2.71812,-3.00757 -6.67197,-7.45268 -8.78633,-9.87802 -6.29193,-7.21737 -8.29199,-9.46502 -12.55535,-14.10953 -4.42973,-4.82576 -14.68154,-16.29196 -32.646842,-36.51408 -24.69651,-27.798909 -31.82023,-35.667459 -32.20068,-35.567499 -0.37804,0.0993 -1.47647,-1.0095 -1.29343,-1.30567 0.0906,-0.14651 -0.39242,-0.69127 -1.07326,-1.21057 -0.68084,-0.51931 -1.16172,-1.06744 -1.06862,-1.21808 0.20736,-0.33552 -1.85446,-2.31528 -2.73269,-2.62392 -0.60373,-0.21217 -0.62386,-0.88859 -0.39274,-13.192 l 0.24362,-12.96837 1.94633,-2.64583 c 2.5233,-3.43017 4.16443,-5.14693 5.41558,-5.66518 0.55456,-0.2297 1.00829,-0.5665 1.00829,-0.74844 0,-0.18194 0.15875,-0.23269 0.35278,-0.11277 0.19402,0.11992 0.35277,0.0549 0.35277,-0.1445 0,-0.19939 0.26417,-0.26115 0.58704,-0.13726 0.43726,0.1678 0.51284,0.0975 0.29622,-0.27565 -0.15995,-0.27551 -0.17304,-0.39537 -0.0291,-0.26636 0.14395,0.129 0.76471,0.0254 1.37948,-0.23026 1.23676,-0.51431 8.12347,-0.74725 10.11358,-0.34209 0.6791,0.13826 1.48048,0.50894 1.78084,0.82375 0.30037,0.3148 2.59269,2.87424 5.09405,5.68765 2.50135,2.8134 4.87497,5.43866 5.27471,5.83391 0.39974,0.39525 2.63179,2.84238 4.96012,5.43806 2.32834,2.59568 6.22003,6.87604 8.64821,9.51192 2.42818,2.63587 7.898519,8.60249 12.156322,13.25916 4.25779,4.65667 9.34105,10.21292 11.29615,12.34722 9.17212,10.01288 17.55808,19.378809 23.9016,26.694679 l 6.93451,7.99746 0.0533,11.7581 c 0.0509,11.23083 0.024,11.75809 -0.60034,11.75809 -0.40894,0 -0.69579,-0.29666 -0.7662,-0.7924 -0.0627,-0.44167 -4.04446,-5.12907 -8.99584,-10.59017 -10.16538,-11.21186 -54.753682,-60.662139 -60.002542,-66.545309 -1.92185,-2.15411 -5.18166,-5.74218 -7.24401,-7.9735 -2.06236,-2.23132 -5.79017,-6.40163 -8.28401,-9.26734 l -4.53427,-5.2104 -1.26842,1.50623 c -0.69764,0.82843 -2.09634,2.38505 -3.10822,3.45916 l -1.8398,1.95293 2.86182,3.16235 c 1.574,1.73929 4.00156,4.43235 5.39458,5.98457 1.39302,1.55222 4.89913,5.45481 7.79135,8.67242 2.89223,3.21761 6.84609,7.66028 8.78637,9.87259 1.94028,2.21231 5.28306,5.92972 7.42841,8.26091 6.34176,6.89111 28.298202,31.373679 37.179072,41.456569 4.52877,5.14174 10.88258,12.20611 14.1196,15.69861 3.23701,3.4925 7.50046,8.16737 9.47433,10.38859 l 3.58886,4.03858 v 10.66103 c 0,5.86357 -0.0964,10.91215 -0.21413,11.21906 -0.37279,0.97147 -1.39168,0.60778 -2.63635,-0.94104 z m 2.09226,-8.7315 c -0.002,-4.49528 -0.18298,-8.96104 -0.41794,-10.29772 -0.46976,-2.67256 0.1281,-1.92191 -11.88789,-14.92588 -3.40644,-3.68653 -11.83199,-13.05278 -18.72345,-20.81389 -6.89145,-7.76111 -19.743183,-22.13627 -28.559402,-31.944799 -19.41721,-21.60274 -36.80137,-41.18213 -36.95943,-41.6266 -0.0638,-0.1795 1.12679,-1.68163 2.64583,-3.33806 1.51905,-1.65642 2.90522,-3.32536 3.08039,-3.70875 0.50607,-1.10761 1.15011,-0.83616 3.15889,1.33141 7.21323,7.78342 84.520752,93.179649 86.909232,96.002559 l 0.78106,0.92313 0.0127,-10.32738 0.0127,-10.32737 -6.94882,-8.01707 C 130.82491,106.7847 122.11387,97.114201 103.12056,76.341131 91.917368,64.088141 77.810278,48.523661 70.441488,40.286011 c -4.65309,-5.20173 -4.40465,-5.0743 -9.81779,-5.03585 -3.88996,0.0276 -3.97634,0.0468 -7.23195,1.60899 -2.92678,1.40436 -3.9252,2.29036 -6.58592,5.8443 l -1.99981,2.67116 -0.25704,12.74923 c -0.22573,11.19667 -0.19276,12.74923 0.27071,12.74923 0.82752,0 17.25018,17.93961 44.7282,48.859719 14.040552,15.79936 25.416222,28.3969 31.059692,34.39583 2.6467,2.8134 6.3748,6.86153 8.28466,8.99583 1.90987,2.13431 4.03919,4.51338 4.73183,5.28684 0.98131,1.09581 1.03459,1.21264 0.24132,0.52917 -0.86736,-0.74732 -0.96356,-0.77212 -0.65003,-0.16762 0.20239,0.39023 0.71996,1.02523 1.15017,1.41111 0.4302,0.38589 2.85661,3.06358 5.39201,5.95043 3.82764,4.35822 4.65399,5.13638 4.87013,4.58611 0.14318,-0.36449 0.25893,-4.23458 0.25724,-8.60021 z M 50.393138,77.442651 c 0,-0.0732 -0.27781,-0.35106 -0.61736,-0.61736 -0.55952,-0.43881 -0.572,-0.42633 -0.13319,0.1332 0.46086,0.58764 0.75055,0.77451 0.75055,0.48416 z m -15.11374,-29.14736 c 0,-0.48507 0.0801,-0.68351 0.17794,-0.44097 0.0979,0.24253 0.0979,0.63941 0,0.88194 -0.0979,0.24254 -0.17794,0.0441 -0.17794,-0.44097 z"
           id="path7876" /><path
           style="fill:url(#linearGradient7878);fill-opacity:1;stroke:#131313;stroke-width:1.75437;paint-order:fill markers stroke"
           d="m 558.86813,846.46436 c -19.02246,-1.51657 -40.72859,-8.79604 -48.43149,-16.24221 -1.74114,-1.6831 -8.37111,-9.1129 -14.73329,-16.51066 -6.36217,-7.39777 -26.61392,-30.16562 -45.00388,-50.59521 -18.38996,-20.4296 -44.28352,-49.4686 -57.54125,-64.53112 -67.19448,-76.34178 -126.63173,-142.8111 -132.6699,-148.36618 -2.39573,-2.20407 -4.85719,-3.8416 -5.46991,-3.63897 -1.86347,0.61629 -2.26571,21.53775 -2.40492,125.08293 l -0.13168,97.94118 -34.42271,37.36618 -34.42271,37.36619 H 117.96581 52.295229 L 51.677305,697.96692 c -0.786502,-186.30111 -0.79115,-462.18948 -0.008,-474.01624 l 0.600332,-9.06576 10.678438,-11.82217 c 5.87314,-6.50219 15.951552,-17.4619 22.396469,-24.35492 6.444918,-6.89301 14.976766,-16.16717 18.959666,-20.60924 7.386,-8.23749 17.58798,-17.19101 22.48,-19.72902 1.49652,-0.7764 2.72094,-1.93056 2.72094,-2.5648 0,-1.4001 24.75247,-18.29807 32.40852,-22.12459 3.01747,-1.50814 6.48472,-2.74207 7.70501,-2.74207 2.69068,0 7.69661,-2.46469 7.69661,-3.78945 0,-1.30836 6.98442,-4.29318 13.0814,-5.59038 2.76181,-0.58761 5.30929,-1.52079 5.66106,-2.073741 0.42888,-0.674144 1.21757,-0.482291 2.39398,0.582341 2.36671,2.14184 4.26506,2.0444 3.68103,-0.188928 -0.32748,-1.252301 0.12003,-1.933515 1.51634,-2.308205 3.49575,-0.938059 41.19851,-0.60123 43.80929,0.391384 1.78578,0.678954 2.86605,0.639723 3.8033,-0.138121 0.99292,-0.824048 2.16872,-0.828867 4.86863,-0.01995 1.95777,0.58656 4.76438,1.068035 6.23692,1.069943 4.65108,0.006 8.23678,3.181377 23.75581,21.037127 26.53964,30.53577 38.47418,43.78635 63.82789,70.86628 27.45546,29.32479 50.30698,54.18747 99.40452,108.15306 45.86296,50.4103 56.04398,61.71255 72.33608,80.30248 26.64256,30.40018 26.21897,30.0572 27.94308,22.62604 0.46782,-2.01639 0.84376,-52.42277 0.85618,-114.79875 l 0.0222,-111.20393 12.76484,-13.77761 c 7.02067,-7.57768 22.16442,-24.25044 33.65278,-37.05058 l 20.88793,-23.27297 68.5841,-0.0498 68.5841,-0.0498 -0.52875,4.87385 c -0.58459,5.38844 -2.17011,252.34144 -3.06936,478.06604 l -0.57958,145.4838 -31.68205,31.37884 c -57.39795,56.84866 -75.98862,70.27517 -111.52034,80.54199 -10.44617,3.0184 -36.70788,5.42441 -48.7385,4.46525 z m 27.85057,-32.42164 c 10.7768,-2.58618 19.13952,-7.35366 27.41699,-15.63005 8.51664,-8.51555 13.05427,-16.36414 18.45183,-31.91554 l 3.33386,-9.60546 V 489.24997 221.60829 l 11.32237,-12.86298 c 6.22729,-7.07463 18.86825,-21.21813 28.091,-31.43001 36.37751,-40.27892 38.53464,-43.24643 32.30185,-44.43678 -4.89881,-0.93559 -53.88143,-1.71487 -65.53639,-1.04264 l -11.74743,0.67757 -19.57668,21.87878 c -10.76718,12.03333 -21.0939,23.73035 -22.9483,25.99338 l -3.3716,4.11461 -0.65016,52.57286 c -0.35758,28.91507 -0.71877,106.04596 -0.80261,171.40197 -0.0839,65.356 -0.45388,167.70685 -0.82225,227.44633 -0.75198,121.945 -0.15074,112.78734 -7.7275,117.7002 -2.82733,1.83327 -5.04141,2.51 -8.11247,2.47956 -5.80062,-0.0575 -8.79758,-1.60868 -11.84239,-6.12944 -2.397,-3.55892 -31.55531,-35.70093 -64.70636,-71.3276 -7.6113,-8.17969 -32.25415,-35.5512 -54.76189,-60.82559 C 412.52282,592.54411 367.81727,542.62196 335.6849,506.8804 276.141,440.64834 243.25526,403.79235 206.06365,361.61009 180.9881,333.16972 167.55009,319.08181 166.4931,320.12581 c -1.18665,1.17206 -1.93746,95.40062 -2.06226,258.81883 l -0.11247,147.2608 -27.62339,30.51868 c -36.55119,40.38224 -47.573152,53.01522 -47.573152,54.52664 0,1.97374 9.211846,2.44207 46.881792,2.38344 l 34.34904,-0.0534 24.81643,-27.55844 24.81643,-27.55843 0.0699,-76.58907 c 0.0385,-42.12399 0.40519,-102.20745 0.81496,-133.51879 0.71591,-54.70296 0.81711,-57.02693 2.58734,-59.41456 4.10887,-5.54195 13.75418,-8.82937 18.5814,-6.33312 5.54312,2.86646 37.68632,37.58448 86.50485,93.4343 17.62932,20.16845 40.02343,45.65173 49.7647,56.62949 9.74126,10.97777 29.16563,32.9101 43.16525,48.7385 13.99963,15.82841 39.29507,44.23599 56.21209,63.12797 62.49101,69.78642 59.65924,66.9077 67.99809,69.12522 11.08515,2.94783 29.61664,3.11894 41.03459,0.37889 z m 98.67651,-60.91685 c 7.8901,-8.29715 19.02227,-20.30771 24.73816,-26.69014 l 10.3925,-11.6044 -0.64096,-223.73292 c -0.66525,-232.21021 -1.30004,-310.80645 -2.52008,-312.02443 -0.99292,-0.99125 -6.27,4.28429 -28.48761,28.47933 l -19.24191,20.95449 -0.60576,43.566 c -0.9413,67.69701 -1.90371,480.8688 -1.13891,488.94306 0.47728,5.03886 1.05266,7.19473 1.9202,7.19473 0.68129,0 7.69425,-6.78858 15.58437,-15.08572 z m -595.62992,8.35517 c 3.085125,-2.58263 14.4443,-14.69595 37.66907,-40.16995 l 5.35603,-5.87474 0.5372,-215.21608 c 0.50038,-200.46674 -0.1988,-312.67995 -1.97581,-317.10276 -0.35901,-0.89354 -0.99753,-1.62462 -1.41895,-1.62462 -0.42141,0 -10.97676,10.96616 -23.45633,24.36925 L 83.786382,230.23139 83.11889,373.19766 c -0.974043,208.62505 -1.070408,388.80859 -0.208652,390.14008 1.201807,1.85689 3.00105,1.36956 6.855052,-1.8567 z m 460.18417,-73.64786 c 0.30993,-0.80765 0.56092,-20.12898 0.55775,-42.9363 l -0.006,-41.46784 -15.54417,-17.24804 c -8.54928,-9.48643 -25.9979,-28.70333 -38.77469,-42.70421 C 483.40583,529.4759 454.37923,497.1327 431.67907,471.60301 387.28053,421.67027 342.92679,372.24511 313.796,340.24115 c -9.99223,-10.97777 -30.25423,-33.53673 -45.02666,-50.13103 -27.716,-31.13417 -74.76914,-83.60798 -79.66063,-88.83777 l -2.77336,-2.96517 2.6847,-3.20801 c 5.81795,-6.95197 19.22141,-21.49728 19.80969,-21.49728 0.34263,0 8.28761,8.71044 17.65552,19.35651 9.36792,10.64609 23.56394,26.52091 31.5467,35.27739 7.98275,8.75649 41.22452,45.58174 73.87059,81.8339 32.64605,36.25216 86.31306,95.78276 119.25999,132.29022 82.12525,91.0004 88.76179,98.5218 93.22841,105.65877 1.63209,2.60784 3.05555,3.89927 4.08192,3.70329 2.49559,-0.47649 2.99729,-11.76598 2.36407,-53.19674 l -0.56757,-37.1341 -4.79154,-5.57011 C 508.44699,412.77311 468.67411,368.40209 394.02247,286.85595 332.4601,219.60792 292.00156,175.21974 269.87994,150.65575 c -13.50623,-14.9974 -17.12572,-18.49653 -20.0341,-19.3679 -7.62279,-2.28385 -48.69946,0.38683 -46.08969,2.9966 0.31238,0.31237 -0.88329,0.8402 -2.65701,1.17295 -1.77372,0.33275 -3.3598,0.9051 -3.52461,1.27188 -0.16481,0.36678 -2.59732,2.2208 -5.40559,4.12004 -5.60277,3.78918 -9.28929,7.83812 -19.29861,21.19588 l -6.64432,8.86706 -0.63786,48.74781 c -0.59931,45.80174 -0.5394,48.82854 0.99143,50.08332 5.88287,4.82209 10.73572,9.65984 10.73572,10.70232 0,0.67196 1.64813,2.54621 3.66249,4.16501 2.01438,1.61878 4.0721,4.11822 4.57271,5.55431 0.50063,1.43608 2.09013,3.22587 3.53225,3.9773 5.125,2.6705 15.70119,14.30265 141.51496,155.6444 41.13218,46.20874 87.0742,97.6059 102.09334,114.2159 15.01916,16.61002 33.14396,36.87131 40.27733,45.02509 20.40159,23.32 63.68984,71.97671 67.90681,76.32842 4.02017,4.1486 8.01443,5.23894 9.07427,2.47704 z M 134.61109,182.36645 c 0,-1.65683 -0.38673,-2.60083 -0.92835,-2.26609 -0.51059,0.31557 -0.92835,1.5935 -0.92835,2.83985 0,1.24635 0.41776,2.26609 0.92835,2.26609 0.5106,0 0.92835,-1.27793 0.92835,-2.83985 z"
           id="path7877"
           transform="scale(0.26458333)" /><path
           style="opacity:0.498818;fill:#000080;fill-opacity:0.619335;stroke:#131313;stroke-width:3.50873;paint-order:fill markers stroke"
           d="m 87.322672,493.41929 0.05755,-261.3312 20.830378,-22.65573 20.83038,-22.65574 0.52294,55.14807 c 0.28761,30.33144 -0.24703,148.48556 -1.18809,262.56474 l -1.71102,207.41666 -19.15305,21.4222 c -10.534167,11.7822 -19.399095,21.42219 -19.699835,21.42219 -0.30074,0 -0.520903,-117.59904 -0.489251,-261.33119 z"
           id="path7894"
           transform="scale(0.26458333)" /><path
           style="opacity:0.498818;fill:#000080;fill-opacity:0.619335;stroke:#131313;stroke-width:3.50873;paint-order:fill markers stroke"
           d="m 99.624763,806.27404 c 2.047877,-2.29767 18.604907,-20.73135 36.793397,-40.96374 l 33.06998,-36.78613 -0.38774,-200.59405 -0.38775,-200.59406 52.51576,59.13653 c 28.88367,32.52511 115.84934,129.94663 193.25703,216.49228 L 555.22672,760.3206 h 9.53645 c 7.3623,0 10.9521,-1.07979 15.74599,-4.73625 l 6.20954,-4.73625 0.053,-280.73211 0.053,-280.73211 23.37597,-26.45804 23.37595,-26.45804 h 34.12889 c 18.77087,0 34.12887,0.49277 34.12887,1.09504 0,0.60228 -15.86388,18.52215 -35.25307,39.82194 l -35.25305,38.7269 -0.48852,271.64028 -0.4885,271.64028 -4.31244,10.67994 c -6.54854,16.2177 -16.71186,27.85777 -30.21517,34.60546 -10.08078,5.03741 -13.47097,5.77267 -26.57602,5.76362 -20.05889,-0.0138 -27.45348,-2.31937 -34.88921,-10.8781 -3.36925,-3.87809 -32.90006,-37.06201 -65.624,-73.74203 -32.72394,-36.68002 -85.31072,-95.93404 -116.8595,-131.67561 -31.54875,-35.74157 -68.27393,-76.88353 -81.61145,-91.42656 l -24.25007,-26.4419 -8.44253,-0.0161 c -7.33618,-0.014 -9.34351,0.90654 -15.31782,7.02477 l -6.87528,7.04094 -0.0129,132.67609 -0.0129,132.67611 -25.12128,27.3864 -25.12128,27.38639 h -34.604 -34.604042 z"
           id="path7895"
           transform="scale(0.26458333)" /><path
           style="opacity:0.498818;fill:#000080;fill-opacity:0.619335;stroke:#131313;stroke-width:3.50873;paint-order:fill markers stroke"
           d="m 526.83997,662.3677 c -9.95658,-11.27276 -18.10601,-21.20813 -18.10983,-22.07859 -0.007,-1.47616 -9.00457,-11.50164 -79.90836,-89.03237 C 413.97221,535.01924 366.36426,482.04697 323.02633,433.54056 242.46095,343.36695 190.20999,286.08588 176.60446,273.02296 l -7.64433,-7.33946 0.0111,-32.57969 c 0.006,-17.91883 0.53838,-39.35165 1.1828,-47.62848 1.14249,-14.67396 1.40991,-15.34403 10.73653,-26.90238 7.0084,-8.6854 12.69065,-13.47171 21.25988,-17.90772 10.50623,-5.43874 13.29518,-6.05414 27.43685,-6.05414 8.65801,0 17.22877,0.79579 19.04614,1.76842 1.81737,0.97262 13.66856,13.26958 26.33598,27.32658 12.66742,14.05699 65.22529,71.98849 116.79526,128.73667 51.56998,56.74819 107.72339,119.02113 124.7854,138.38432 l 31.0218,35.20581 -0.14168,30.63563 c -0.22673,49.02792 7.90571,52.86246 -69.32875,-32.68935 C 263.78575,226.58386 210.1796,168.00858 207.32657,168.10419 c -1.18838,0.0398 -4.86568,3.59078 -8.17177,7.891 -3.30609,4.30022 -8.61235,10.87537 -11.79168,14.61144 -4.09235,4.80898 -5.31364,7.62727 -4.18173,9.6499 2.67728,4.78403 261.70044,295.20476 320.38769,359.22357 45.55959,49.69856 41.26088,41.79104 41.9786,77.22003 0.33267,16.4213 0.33267,33.52587 0,38.0102 l -0.60484,8.15332 z"
           id="path7896"
           transform="scale(0.26458333)" /><path
           style="opacity:0.498818;fill:#000080;fill-opacity:0.619335;stroke:#131313;stroke-width:3.50873;paint-order:fill markers stroke"
           d="m 672.554,496.0191 0.50147,-262.4448 8.65086,-10.02662 c 4.75797,-5.51465 14.1178,-15.87525 20.79963,-23.02357 l 12.14878,-12.99693 0.0883,262.77582 0.0883,262.7758 -20.57737,22.69256 c -11.31755,12.4809 -20.94277,22.69253 -21.38939,22.69253 -0.44662,0 -0.58637,-118.10016 -0.31057,-262.44479 z"
           id="path7897"
           transform="scale(0.26458333)" /></g><path
         style="opacity:0.498818;fill:#000080;fill-opacity:0.619335;stroke:#131313;stroke-width:0.438592;paint-order:fill markers stroke"
         d="m 546.19008,541.17141 c -0.62151,-0.73397 -3.25455,-3.71855 -5.8512,-6.63238 -2.59665,-2.91382 -4.68571,-5.33276 -4.64235,-5.3754 0.0434,-0.0426 0.75769,0.435 1.58741,1.06144 4.26891,3.22302 7.49836,3.82795 9.50093,1.77967 l 0.71094,-0.72717 v 5.61418 c 0,3.08779 -0.0395,5.61417 -0.0879,5.61417 -0.0483,0 -0.59636,-0.60053 -1.21788,-1.33451 z"
         id="path7898"
         transform="scale(0.26458333)" /><path
         style="opacity:0.498818;fill:#000080;fill-opacity:0.619335;stroke:#131313;stroke-width:0.027412;paint-order:fill markers stroke"
         d="m 533.93813,527.56824 c -0.85428,-0.95103 -1.55062,-1.73207 -1.54744,-1.73564 0.003,-0.004 0.0627,0.0492 0.13227,0.11731 0.588,0.57566 2.11533,1.94933 3.04895,2.7422 0.19057,0.16185 0.34454,0.29624 0.34214,0.29864 -0.002,0.002 -0.0381,-0.009 -0.0793,-0.0252 -0.0412,-0.0163 -0.0978,-0.0295 -0.12565,-0.0295 -0.15809,0 -0.26797,0.14353 -0.2271,0.29665 0.009,0.0322 0.0142,0.0599 0.0125,0.0616 -0.002,0.002 -0.70207,-0.775 -1.55635,-1.72603 z"
         id="path7899"
         transform="scale(0.26458333)" /><path
         style="opacity:0.498818;fill:#000080;fill-opacity:0.619335;stroke:#131313;stroke-width:0.155066;paint-order:fill markers stroke"
         d="m 507.87331,643.16956 c -2.20615,-2.22831 -3.05072,-3.22355 -3.95661,-4.66247 -0.39336,-0.6248 -0.99834,-1.88281 -0.99834,-2.07596 0,-0.19239 0.0962,-0.16504 0.58569,0.16655 0.59449,0.40271 0.7332,0.53379 1.42127,1.34306 1.15885,1.36298 2.00417,2.55078 2.13459,2.99942 0.14456,0.49725 0.81609,1.54774 1.90497,2.97999 0.42444,0.55827 0.75868,1.02807 0.74276,1.04399 -0.0159,0.0159 -0.84137,-0.79164 -1.83433,-1.79458 z"
         id="path7900"
         transform="scale(0.26458333)" /><path
         style="opacity:0.498818;fill:#000080;fill-opacity:0.619335;stroke:#131313;stroke-width:0.310131;paint-order:fill markers stroke"
         d="m 189.15968,292.36985 c -0.92076,-0.87081 -2.50852,-2.79588 -2.306,-2.79588 0.36695,0 3.51516,2.88958 3.51516,3.22638 0,0.48369 -0.38896,0.34521 -1.20916,-0.4305 z"
         id="path7901"
         transform="scale(0.26458333)" /><path
         style="opacity:0.498818;fill:#000080;fill-opacity:0.619335;stroke:#131313;stroke-width:0.109648;paint-order:fill markers stroke"
         d="m 703.59769,137.61373 c -0.002,-0.64895 -0.25832,-1.18276 -0.73266,-1.52637 l -0.23573,-0.17077 h 1.43734 c 1.36047,0 1.43311,0.005 1.35797,0.10154 -0.0941,0.12036 -1.79896,1.98725 -1.81477,1.98725 -0.006,0 -0.0115,-0.17624 -0.0122,-0.39165 z"
         id="path7902"
         transform="scale(0.26458333)" /></g></g></svg>
